<svg width="173" height="69" viewBox="0 0 173 69" fill="none" xmlns="http://www.w3.org/2000/svg">
<path d="M68.96 15.1097L86.3218 30.6564L103.684 15.1097L112.743 15.0593C112.743 15.0593 112.121 46.7913 86.3218 63.5817C86.3218 63.5817 62.9766 54.6907 59.6992 15.1097H68.96Z" fill="url(#paint0_linear_155_4250)"/>
<path style="mix-blend-mode:color-dodge" opacity="0.5" d="M108.827 34.1186C105.348 43.9172 98.7592 55.4806 86.3218 63.5817C86.3218 63.5817 81.2797 61.6656 75.5484 55.615C77.8678 49.4804 82.8764 43.497 89.8682 39.2952C96.1036 35.5472 102.827 33.8665 108.827 34.1186Z" fill="url(#paint1_linear_155_4250)"/>
<path style="mix-blend-mode:multiply" opacity="0.7" d="M105.18 36.8582C107.869 30.8076 108.541 19.1602 108.541 19.1602C107.314 19.9502 104.911 19.9502 104.911 19.9502C99.381 28.5555 86.221 38.3037 86.221 38.3037C76.809 33.5472 67.7331 22.1687 67.7331 22.1687C67.1952 21.8998 66.0523 22.1687 66.0523 22.1687C64.5229 32.8245 74.6912 49.0267 74.6912 49.0267C74.6912 49.0267 75.1282 52.0015 75.7165 55.8C69.0776 48.8922 61.4472 36.4717 59.6824 15.0929H68.9432L86.305 30.6396L103.667 15.0929L112.726 15.0425C112.726 15.0425 112.423 30.2362 103.7 45.1442C103.953 41.6147 104.406 38.539 105.163 36.8246L105.18 36.8582Z" fill="url(#paint2_linear_155_4250)"/>
<path d="M103.684 15.1096L102.86 16.2021C97.1457 23.7485 89.3639 28.8411 86.3218 30.6563C83.2797 28.8243 75.4812 23.7317 69.7835 16.2021L68.96 15.1096L70.6407 11.7314L72.4895 14.1684C74.8425 17.2778 77.5989 19.9669 80.1872 22.135L86.3386 27.0091L92.4901 22.135C95.0784 19.9669 97.8348 17.2946 100.188 14.1684L102.037 11.7314L103.717 15.1096H103.684Z" fill="url(#paint3_linear_155_4250)"/>
<path d="M60.8253 27.0765C60.8253 27.0765 53.9175 33.3792 31.4967 26.9252C21.0762 23.9335 13.1432 17.8325 7.84897 12.555C10.6053 12.2357 12.8407 11.7315 12.8407 11.7315C9.51288 11.2609 7.09264 10.5886 5.41192 9.96671C1.81518 6.00021 0 2.97491 0 2.97491C14.7399 -2.10086 27.026 1.57991 27.026 1.57991C29.9504 3.73124 34.085 9.86587 34.085 9.86587L32.5556 3.10937C53.4469 9.56334 60.8085 27.0765 60.8085 27.0765H60.8253Z" fill="url(#paint4_linear_155_4250)"/>
<path d="M60.8253 27.0765C60.6908 27.2109 53.6822 33.3119 31.4967 26.9252C21.0762 23.9335 13.1432 17.8325 7.84897 12.555C10.6053 12.2357 12.8407 11.7315 12.8407 11.7315C9.51288 11.2609 7.09264 10.5886 5.41192 9.96671C1.81518 6.00021 0 2.97491 0 2.97491C0 2.97491 36.2363 12.5046 60.8253 27.0933V27.0765Z" fill="url(#paint5_linear_155_4250)"/>
<path style="mix-blend-mode:multiply" opacity="0.8" d="M60.8253 27.0764C60.8253 27.0764 53.9175 33.3791 31.4967 26.9252C29.7992 26.4378 28.1521 25.8663 26.589 25.2276L28.4882 23.2108C36.4548 20.7233 44.4383 18.6896 44.4383 18.6896C41.4802 15.0593 37.5809 6.35315 37.5809 6.35315L42.6063 7.54646C55.884 15.345 60.8253 27.0932 60.8253 27.0932V27.0764Z" fill="url(#paint6_linear_155_4250)"/>
<path d="M63.2792 33.2279C63.2792 33.2279 44.6904 43.2114 30.4043 40.4382C27.2781 39.8331 24.4713 39.0264 22.0175 38.1524C25.5806 36.5725 28.2697 35.1271 28.3874 35.0599C24.0847 36.27 20.8578 36.7238 18.7737 36.875C12.202 34.0178 8.89103 30.9085 8.89103 30.9085C8.89103 30.9085 27.6311 20.4712 41.9172 21.8494C56.2033 23.2276 63.2623 33.2111 63.2623 33.2111L63.2792 33.2279Z" fill="url(#paint7_linear_155_4250)"/>
<path d="M63.2792 33.2279C63.2792 33.2279 44.6904 43.2113 30.4043 40.4382C27.2781 39.8331 24.4713 39.0263 22.0175 38.1524C25.5806 36.5725 28.2697 35.1271 28.3874 35.0598C24.0847 36.27 20.8578 36.7238 18.7737 36.875C12.202 34.0178 8.89103 30.9085 8.89103 30.9085C8.89103 30.9085 43.2954 29.379 63.2623 33.2111L63.2792 33.2279Z" fill="url(#paint8_linear_155_4250)"/>
<path style="mix-blend-mode:multiply" opacity="0.8" d="M36.0851 40.9256C45.1442 33.2111 51.7158 31.6648 51.7158 31.6648C51.0099 26.8748 46.9089 22.7402 46.9089 22.7402C57.8504 25.5806 63.2623 33.2279 63.2623 33.2279C63.2623 33.2279 49.1611 40.808 36.0851 40.9256Z" fill="url(#paint9_linear_155_4250)"/>
<path d="M65.3296 39.7322C65.3296 39.7322 58.5227 49.3796 45.6316 52.2536C48.7073 49.3124 48.4552 47.6148 48.4552 47.6148C46.3375 50.7914 43.1945 52.6906 43.1945 52.6906C39.7323 53.1948 35.8666 53.1948 31.6312 52.4217C31.0261 52.304 36.0851 36.8582 61.2791 32.4883L65.3128 39.7154L65.3296 39.7322Z" fill="url(#paint10_linear_155_4250)"/>
<path d="M65.3296 39.7322C65.3296 39.7322 58.5227 49.3796 45.6316 52.2536C48.7073 49.3124 48.4552 47.6148 48.4552 47.6148C46.3375 50.7914 43.1945 52.6906 43.1945 52.6906C39.7323 53.1948 35.8666 53.1948 31.6312 52.4217C31.6312 52.4217 48.5728 40.8415 63.1279 35.8162L65.3128 39.7322H65.3296Z" fill="url(#paint11_linear_155_4250)"/>
<path style="mix-blend-mode:multiply" opacity="0.8" d="M65.3296 39.7323C65.3296 39.7323 62.6573 43.5307 57.4807 47.0602C58.5395 41.9004 57.4807 38.0348 57.4807 38.0348C54.4386 35.9339 51.1275 35.1775 51.1275 35.1775C54.0856 34.0851 57.4639 33.1607 61.2959 32.5052L65.3296 39.7323Z" fill="url(#paint12_linear_155_4250)"/>
<path d="M86.3218 57.5479V68.1868C86.3218 68.1868 86.3218 68.1868 86.305 68.1868C85.431 67.7499 60.9261 55.094 57.447 25.0764C41.06 13.513 37.5809 6.35312 37.5809 6.35312V0C49.0434 14.2357 63.1783 16.9921 63.1783 16.9921C63.1783 16.9921 63.8001 48.0182 86.3218 57.5311V57.5479Z" fill="url(#paint13_linear_155_4250)"/>
<path d="M63.1783 16.9921L60.3883 21.1939L57.447 25.0595C41.06 13.513 37.5809 6.35312 37.5809 6.35312V0C49.0434 14.2357 63.1783 16.9921 63.1783 16.9921Z" fill="url(#paint14_linear_155_4250)"/>
<path d="M7.07582 4.9917C7.07582 4.9917 20.8913 7.27748 31.648 13.3785C31.648 13.3785 14.8744 8.2523 7.07582 4.9917Z" fill="url(#paint15_linear_155_4250)"/>
<path d="M14.5886 30.7404C14.5886 30.7404 23.1267 28.8244 38.0179 30.8244C38.0179 30.8244 21.1098 30.9421 14.5886 30.7404Z" fill="url(#paint16_linear_155_4250)"/>
<path d="M52.3881 40.3878C52.3881 40.3878 42.5222 43.5811 32.5051 51.8503C32.5051 51.8503 49.4804 42.3374 52.3881 40.3878Z" fill="url(#paint17_linear_155_4250)"/>
<path d="M86.3218 63.5817V68.17C85.431 67.7331 60.9261 55.0772 57.447 25.0595C41.06 13.513 37.5809 6.35312 37.5809 6.35312V0C37.5809 0 42.2365 13.6979 60.3883 21.1939C60.3883 21.1939 60.3042 47.6148 86.3218 63.5817Z" fill="url(#paint18_linear_155_4250)"/>
<path d="M52.7747 16.1349C52.2704 16.2862 55.5815 18.4543 55.5983 17.8829C55.6319 15.7316 54.4218 15.6307 52.7747 16.1349Z" fill="url(#paint19_linear_155_4250)"/>
<path d="M111.818 27.0764C111.818 27.0764 118.726 33.3791 141.147 26.9252C151.567 23.9335 159.5 17.8325 164.795 12.555C162.038 12.2357 159.803 11.7314 159.803 11.7314C163.131 11.2608 165.551 10.5885 167.232 9.96668C170.795 5.98337 172.627 2.95807 172.627 2.95807C157.887 -2.11771 145.601 1.57988 145.601 1.57988C142.676 3.7312 138.542 9.86583 138.542 9.86583L140.071 3.10934C119.18 9.5633 111.818 27.0764 111.818 27.0764Z" fill="url(#paint20_linear_155_4250)"/>
<path d="M111.818 27.0764C111.953 27.2109 118.961 33.3119 141.147 26.9251C151.567 23.9335 159.5 17.8324 164.795 12.555C162.038 12.2356 159.803 11.7314 159.803 11.7314C163.131 11.2608 165.551 10.5885 167.232 9.96667C170.795 5.98337 172.627 2.95807 172.627 2.95807C172.627 2.95807 136.39 12.4878 111.802 27.0764H111.818Z" fill="url(#paint21_linear_155_4250)"/>
<path style="mix-blend-mode:multiply" opacity="0.8" d="M111.818 27.0764C111.818 27.0764 118.726 33.3791 141.147 26.9252C142.844 26.4378 144.492 25.8663 146.055 25.2276L144.155 23.2108C136.189 20.7233 128.205 18.6896 128.205 18.6896C131.163 15.0593 135.063 6.35315 135.063 6.35315L130.037 7.54646C116.76 15.345 111.818 27.0932 111.818 27.0932V27.0764Z" fill="url(#paint22_linear_155_4250)"/>
<path d="M109.348 33.2279C109.348 33.2279 127.936 43.2114 142.223 40.4382C145.349 39.8331 148.156 39.0264 150.609 38.1524C147.046 36.5725 144.357 35.1271 144.239 35.0599C148.542 36.27 151.769 36.7238 153.853 36.8751C160.425 34.0178 163.736 30.9085 163.736 30.9085C163.736 30.9085 144.996 20.4712 130.71 21.8494C116.424 23.2276 109.364 33.2111 109.364 33.2111L109.348 33.2279Z" fill="url(#paint23_linear_155_4250)"/>
<path d="M109.348 33.2279C109.348 33.2279 127.936 43.2114 142.223 40.4382C145.349 39.8331 148.156 39.0264 150.609 38.1524C147.046 36.5725 144.357 35.1271 144.239 35.0599C148.542 36.27 151.769 36.7238 153.853 36.8751C160.425 34.0178 163.736 30.9085 163.736 30.9085C163.736 30.9085 129.331 29.379 109.364 33.2111L109.348 33.2279Z" fill="url(#paint24_linear_155_4250)"/>
<path style="mix-blend-mode:multiply" opacity="0.8" d="M136.542 40.9256C127.483 33.2111 120.911 31.6648 120.911 31.6648C121.617 26.8748 125.718 22.7402 125.718 22.7402C114.776 25.5806 109.364 33.2279 109.364 33.2279C109.364 33.2279 123.466 40.808 136.542 40.9256Z" fill="url(#paint25_linear_155_4250)"/>
<path d="M107.297 39.7323C107.297 39.7323 114.104 49.3796 126.995 52.2536C123.92 49.3124 124.172 47.6149 124.172 47.6149C126.289 50.7914 129.432 52.6906 129.432 52.6906C132.895 53.1949 136.76 53.1949 140.996 52.4217C141.601 52.3041 136.542 36.8582 111.348 32.4884L107.314 39.7155L107.297 39.7323Z" fill="url(#paint26_linear_155_4250)"/>
<path d="M107.297 39.7322C107.297 39.7322 114.104 49.3796 126.995 52.2536C123.92 49.3124 124.172 47.6148 124.172 47.6148C126.289 50.7914 129.432 52.6906 129.432 52.6906C132.895 53.1948 136.76 53.1948 140.996 52.4217C140.996 52.4217 124.054 40.8415 109.499 35.8162L107.314 39.7322H107.297Z" fill="url(#paint27_linear_155_4250)"/>
<path style="mix-blend-mode:multiply" opacity="0.8" d="M107.297 39.7323C107.297 39.7323 109.97 43.5307 115.146 47.0602C114.087 41.9004 115.146 38.0348 115.146 38.0348C118.188 35.9339 121.499 35.1775 121.499 35.1775C118.541 34.0851 115.163 33.1607 111.331 32.5052L107.297 39.7323Z" fill="url(#paint28_linear_155_4250)"/>
<path d="M86.3218 57.5479V68.1868C86.3218 68.1868 111.65 55.6151 115.197 25.0595C131.584 13.513 135.063 6.33632 135.063 6.33632V0C123.6 14.2357 109.465 16.9921 109.465 16.9921C109.465 16.9921 108.843 48.0182 86.3218 57.5479Z" fill="url(#paint29_linear_155_4250)"/>
<path d="M135.063 0V6.35312C135.063 6.35312 131.584 13.513 115.197 25.0764L112.255 21.2107L109.465 17.0089C109.465 17.0089 123.6 14.2525 135.063 0.0168072V0Z" fill="url(#paint30_linear_155_4250)"/>
<path d="M165.551 4.9917C165.551 4.9917 151.735 7.27748 140.979 13.3785C140.979 13.3785 157.752 8.2523 165.551 4.9917Z" fill="url(#paint31_linear_155_4250)"/>
<path d="M158.038 30.7404C158.038 30.7404 149.5 28.8244 134.609 30.8244C134.609 30.8244 151.517 30.9421 158.038 30.7404Z" fill="url(#paint32_linear_155_4250)"/>
<path d="M120.256 40.3878C120.256 40.3878 130.121 43.5812 140.138 51.8503C140.138 51.8503 123.163 42.3374 120.256 40.3878Z" fill="url(#paint33_linear_155_4250)"/>
<path d="M86.3218 63.5817V68.17C87.2126 67.7331 111.717 55.0772 115.197 25.0595C131.584 13.513 135.063 6.33632 135.063 6.33632V0C135.063 0 130.407 13.6979 112.255 21.1939C112.255 21.1939 112.339 47.6148 86.3218 63.5817Z" fill="url(#paint34_linear_155_4250)"/>
<path d="M115.113 17.8829C114.423 19.7149 118.642 17.9501 118.945 17.1938C119.247 16.4206 117.785 15.4962 116.995 16.4206C116.205 17.345 115.113 17.8997 115.113 17.8997V17.8829Z" fill="url(#paint35_linear_155_4250)"/>
<path d="M86.3218 57.5479L85.7 62.3547L82.1032 60.7412L86.221 64.3043L90.1707 61.0101L86.7252 62.4556L86.3218 57.5479Z" fill="url(#paint36_linear_155_4250)"/>
<defs>
<linearGradient id="paint0_linear_155_4250" x1="86.221" y1="31.7152" x2="86.221" y2="52.7915" gradientUnits="userSpaceOnUse">
<stop stop-color="#B75014"/>
<stop offset="0.39" stop-color="#CA6B34"/>
<stop offset="1" stop-color="#FFA933"/>
</linearGradient>
<linearGradient id="paint1_linear_155_4250" x1="98.1877" y1="30.8244" x2="91.0447" y2="47.682" gradientUnits="userSpaceOnUse">
<stop stop-color="#EBBD38"/>
<stop offset="1"/>
</linearGradient>
<linearGradient id="paint2_linear_155_4250" x1="86.221" y1="52.2873" x2="86.221" y2="18.3703" gradientUnits="userSpaceOnUse">
<stop stop-color="#F08D1D"/>
<stop offset="1" stop-color="#8D2C1B"/>
</linearGradient>
<linearGradient id="paint3_linear_155_4250" x1="68.9432" y1="21.1938" x2="103.684" y2="21.1938" gradientUnits="userSpaceOnUse">
<stop stop-color="#E39330"/>
<stop offset="1" stop-color="#FFCD61"/>
</linearGradient>
<linearGradient id="paint4_linear_155_4250" x1="32.5892" y1="29.1942" x2="28.2697" y2="1.10931" gradientUnits="userSpaceOnUse">
<stop stop-color="#CA6B34"/>
<stop offset="0.74" stop-color="#FFBD2B"/>
<stop offset="1" stop-color="#FFA933"/>
</linearGradient>
<linearGradient id="paint5_linear_155_4250" x1="0" y1="16.4039" x2="60.8253" y2="16.4039" gradientUnits="userSpaceOnUse">
<stop stop-color="#D16509"/>
<stop offset="1" stop-color="#8D2C1B"/>
</linearGradient>
<linearGradient id="paint6_linear_155_4250" x1="26.5722" y1="18.1014" x2="60.8253" y2="18.1014" gradientUnits="userSpaceOnUse">
<stop stop-color="#F08D1D"/>
<stop offset="1" stop-color="#8D2C1B"/>
</linearGradient>
<linearGradient id="paint7_linear_155_4250" x1="39.5642" y1="38.9423" x2="28.7572" y2="17.5467" gradientUnits="userSpaceOnUse">
<stop stop-color="#CA6B34"/>
<stop offset="0.74" stop-color="#FFBD2B"/>
<stop offset="1" stop-color="#FFA933"/>
</linearGradient>
<linearGradient id="paint8_linear_155_4250" x1="8.90784" y1="35.7826" x2="63.2792" y2="35.7826" gradientUnits="userSpaceOnUse">
<stop stop-color="#D16509"/>
<stop offset="1" stop-color="#8D2C1B"/>
</linearGradient>
<linearGradient id="paint9_linear_155_4250" x1="36.0851" y1="31.8329" x2="63.2791" y2="31.8329" gradientUnits="userSpaceOnUse">
<stop stop-color="#F08D1D"/>
<stop offset="1" stop-color="#8D2C1B"/>
</linearGradient>
<linearGradient id="paint10_linear_155_4250" x1="31.5976" y1="42.7744" x2="65.3296" y2="42.7744" gradientUnits="userSpaceOnUse">
<stop stop-color="#CA6B34"/>
<stop offset="0.74" stop-color="#FFBD2B"/>
<stop offset="1" stop-color="#FFA933"/>
</linearGradient>
<linearGradient id="paint11_linear_155_4250" x1="31.6312" y1="44.4383" x2="65.3296" y2="44.4383" gradientUnits="userSpaceOnUse">
<stop stop-color="#D16509"/>
<stop offset="1" stop-color="#8D2C1B"/>
</linearGradient>
<linearGradient id="paint12_linear_155_4250" x1="51.1107" y1="39.7827" x2="65.3296" y2="39.7827" gradientUnits="userSpaceOnUse">
<stop stop-color="#F08D1D"/>
<stop offset="1" stop-color="#8D2C1B"/>
</linearGradient>
<linearGradient id="paint13_linear_155_4250" x1="61.9513" y1="63.7497" x2="61.9513" y2="25.9335" gradientUnits="userSpaceOnUse">
<stop stop-color="#CA6B34"/>
<stop offset="0.74" stop-color="#FFBD2B"/>
<stop offset="1" stop-color="#FFA933"/>
</linearGradient>
<linearGradient id="paint14_linear_155_4250" x1="50.3712" y1="32.2026" x2="50.3712" y2="10.807" gradientUnits="userSpaceOnUse">
<stop stop-color="#E39330"/>
<stop offset="1" stop-color="#FFCD61"/>
</linearGradient>
<linearGradient id="paint15_linear_155_4250" x1="7.07582" y1="9.17669" x2="31.6312" y2="9.17669" gradientUnits="userSpaceOnUse">
<stop stop-color="#FFF29E"/>
<stop offset="1" stop-color="#FFF4B0"/>
</linearGradient>
<linearGradient id="paint16_linear_155_4250" x1="14.5886" y1="30.3875" x2="38.0179" y2="30.3875" gradientUnits="userSpaceOnUse">
<stop stop-color="#FFF29E"/>
<stop offset="1" stop-color="#FFF4B0"/>
</linearGradient>
<linearGradient id="paint17_linear_155_4250" x1="32.5051" y1="46.119" x2="52.3881" y2="46.119" gradientUnits="userSpaceOnUse">
<stop stop-color="#FFF29E"/>
<stop offset="1" stop-color="#FFF4B0"/>
</linearGradient>
<linearGradient id="paint18_linear_155_4250" x1="37.5809" y1="34.085" x2="86.3218" y2="34.085" gradientUnits="userSpaceOnUse">
<stop stop-color="#D16509"/>
<stop offset="1" stop-color="#8D2C1B"/>
</linearGradient>
<linearGradient id="paint19_linear_155_4250" x1="52.7242" y1="16.9249" x2="55.5983" y2="16.9249" gradientUnits="userSpaceOnUse">
<stop stop-color="white"/>
<stop offset="1" stop-color="#FFF7C4"/>
</linearGradient>
<linearGradient id="paint20_linear_155_4250" x1="141.248" y1="20.5552" x2="144.273" y2="3.2606" gradientUnits="userSpaceOnUse">
<stop stop-color="#CA6B34"/>
<stop offset="0.74" stop-color="#FFBD2B"/>
<stop offset="1" stop-color="#FFA933"/>
</linearGradient>
<linearGradient id="paint21_linear_155_4250" x1="168.274" y1="16.4038" x2="105.701" y2="16.4038" gradientUnits="userSpaceOnUse">
<stop stop-color="#D16509"/>
<stop offset="1" stop-color="#8D2C1B"/>
</linearGradient>
<linearGradient id="paint22_linear_155_4250" x1="111.818" y1="18.1014" x2="146.055" y2="18.1014" gradientUnits="userSpaceOnUse">
<stop stop-color="#F08D1D"/>
<stop offset="1" stop-color="#8D2C1B"/>
</linearGradient>
<linearGradient id="paint23_linear_155_4250" x1="134.962" y1="36.791" x2="138.861" y2="25.1268" gradientUnits="userSpaceOnUse">
<stop stop-color="#CA6B34"/>
<stop offset="0.74" stop-color="#FFBD2B"/>
<stop offset="1" stop-color="#FFA933"/>
</linearGradient>
<linearGradient id="paint24_linear_155_4250" x1="168.274" y1="35.7826" x2="105.701" y2="35.7826" gradientUnits="userSpaceOnUse">
<stop stop-color="#D16509"/>
<stop offset="1" stop-color="#8D2C1B"/>
</linearGradient>
<linearGradient id="paint25_linear_155_4250" x1="109.348" y1="31.8329" x2="136.542" y2="31.8329" gradientUnits="userSpaceOnUse">
<stop stop-color="#F08D1D"/>
<stop offset="1" stop-color="#8D2C1B"/>
</linearGradient>
<linearGradient id="paint26_linear_155_4250" x1="123.096" y1="46.7913" x2="126.777" y2="41.6147" gradientUnits="userSpaceOnUse">
<stop stop-color="#CA6B34"/>
<stop offset="0.74" stop-color="#FFBD2B"/>
<stop offset="1" stop-color="#FFA933"/>
</linearGradient>
<linearGradient id="paint27_linear_155_4250" x1="168.274" y1="44.4383" x2="105.701" y2="44.4383" gradientUnits="userSpaceOnUse">
<stop stop-color="#D16509"/>
<stop offset="1" stop-color="#8D2C1B"/>
</linearGradient>
<linearGradient id="paint28_linear_155_4250" x1="107.297" y1="39.7827" x2="121.516" y2="39.7827" gradientUnits="userSpaceOnUse">
<stop stop-color="#F08D1D"/>
<stop offset="1" stop-color="#8D2C1B"/>
</linearGradient>
<linearGradient id="paint29_linear_155_4250" x1="110.692" y1="63.7497" x2="110.692" y2="25.9335" gradientUnits="userSpaceOnUse">
<stop stop-color="#CA6B34"/>
<stop offset="0.74" stop-color="#FFBD2B"/>
<stop offset="1" stop-color="#FFA933"/>
</linearGradient>
<linearGradient id="paint30_linear_155_4250" x1="122.256" y1="32.2026" x2="122.256" y2="10.807" gradientUnits="userSpaceOnUse">
<stop stop-color="#E39330"/>
<stop offset="1" stop-color="#FFCD61"/>
</linearGradient>
<linearGradient id="paint31_linear_155_4250" x1="140.996" y1="-4.03658e-05" x2="165.551" y2="-4.03658e-05" gradientUnits="userSpaceOnUse">
<stop stop-color="#FFF29E"/>
<stop offset="1" stop-color="#FFF4B0"/>
</linearGradient>
<linearGradient id="paint32_linear_155_4250" x1="134.609" y1="30.3875" x2="158.038" y2="30.3875" gradientUnits="userSpaceOnUse">
<stop stop-color="#FFF29E"/>
<stop offset="1" stop-color="#FFF4B0"/>
</linearGradient>
<linearGradient id="paint33_linear_155_4250" x1="120.256" y1="46.119" x2="140.122" y2="46.119" gradientUnits="userSpaceOnUse">
<stop stop-color="#FFF29E"/>
<stop offset="1" stop-color="#FFF4B0"/>
</linearGradient>
<linearGradient id="paint34_linear_155_4250" x1="86.3218" y1="34.085" x2="135.063" y2="34.085" gradientUnits="userSpaceOnUse">
<stop stop-color="#D16509"/>
<stop offset="1" stop-color="#8D2C1B"/>
</linearGradient>
<linearGradient id="paint35_linear_155_4250" x1="115.045" y1="17.345" x2="118.995" y2="17.345" gradientUnits="userSpaceOnUse">
<stop stop-color="white"/>
<stop offset="1" stop-color="#FFF7C4"/>
</linearGradient>
<linearGradient id="paint36_linear_155_4250" x1="82.1032" y1="60.9261" x2="90.1707" y2="60.9261" gradientUnits="userSpaceOnUse">
<stop stop-color="#FFF29E"/>
<stop offset="1" stop-color="#FFF4B0"/>
</linearGradient>
</defs>
</svg>
