<svg width="75" height="530" viewBox="0 0 75 530" fill="none" xmlns="http://www.w3.org/2000/svg">
<path d="M74.8625 515.943C62.3925 505.782 30.8125 476.957 14.8125 434.421C16.7125 420.542 30.8125 315.839 30.8125 265C30.8125 214.161 16.7125 109.458 14.8125 95.5792C30.7725 53.1425 62.3925 24.2582 74.8625 14.0666V0.0100098L73.5825 0.909551C73.0825 1.26541 61.1625 9.67764 46.5725 25.2368C33.1125 39.59 14.7525 63.0078 3.7425 93.0585L3.2725 94.3535L3.4625 95.7176C3.6225 96.8742 19.5425 212.411 19.5425 265.01C19.5425 317.609 3.6125 433.126 3.4525 434.293L3.2625 435.657L3.7325 436.952C14.7425 467.002 33.1025 490.42 46.5625 504.773C61.1525 520.332 73.0725 528.755 73.5725 529.101L74.8525 530V515.953L74.8625 515.943Z" fill="url(#paint0_linear_154_27)"/>
<path d="M74.8625 515.943C62.4025 505.781 30.8125 476.957 14.8125 434.421C16.7125 420.542 30.8025 315.839 30.8025 265C30.8025 214.161 16.7125 109.458 14.8125 95.5693C30.7725 53.1424 62.3925 24.2482 74.8625 14.0567V7.60168L73.6725 8.54077C63.1525 16.8541 27.4525 47.5771 10.0525 93.8196L9.60248 94.9959L9.77248 96.2414C11.4025 108.173 25.7225 214.25 25.7225 265C25.7225 315.75 11.4025 421.827 9.77248 433.749L9.60248 434.994L10.0525 436.18C27.4825 482.532 63.1525 513.176 73.6725 521.459L74.8625 522.398V515.953V515.943Z" fill="url(#paint1_linear_154_27)"/>
<path style="mix-blend-mode:multiply" opacity="0.5" d="M13.8825 84.5374C13.8825 84.5374 8.74251 85.348 6.01251 87.1867C9.94251 77.5685 14.5925 68.6916 19.5025 60.6451C19.5025 60.6451 23.4525 63.0275 28.0725 68.1974C24.0725 74.9094 20.3425 82.1255 17.1025 89.8359C17.1025 89.8359 16.8725 87.5722 13.8825 84.5374Z" fill="url(#paint2_linear_154_27)"/>
<path style="mix-blend-mode:multiply" opacity="0.5" d="M6.02252 442.823C8.75252 444.652 13.8825 445.463 13.8825 445.463C16.8725 442.428 17.1025 440.164 17.1025 440.164L17.1125 440.174C20.3525 447.884 24.0825 455.11 28.0725 461.813C23.4525 466.982 19.5125 469.365 19.5125 469.365C14.5925 461.318 9.96252 452.441 6.02252 442.823Z" fill="url(#paint3_linear_154_27)"/>
<path d="M25.7325 187.53C24.5325 175.53 23.2425 163.658 21.9625 152.596C22.5225 149.878 22.8625 147.95 22.9125 147.011C22.9125 147.011 25.7125 120.697 18.5825 86.4255C17.4525 80.9788 16.0725 75.3245 14.3825 69.5516C12.6725 63.6798 10.6425 57.6796 8.2525 51.6299C8.2525 51.6299 9.6025 42.9508 21.9525 38.6112C21.9525 38.6112 27.2325 39.5898 32.3825 41.9227C31.8625 42.5949 31.3425 43.2671 30.8425 43.9591C30.5225 44.4632 27.7725 48.7336 22.3125 56.1869C22.3125 56.1869 24.1425 61.9895 26.4425 70.9948C31.3425 90.1423 38.3925 123.801 34.5625 147.021C32.5225 159.348 29.3825 173.148 25.7325 187.54V187.53Z" fill="url(#paint4_linear_154_27)"/>
<path d="M17.2825 310.472C16.4025 321.553 15.3225 333.128 14.1625 344.555C11.6125 334.374 8.7825 323.273 6.0525 312.696C-2.0175 281.399 -2.0175 248.601 6.0525 217.304C8.7825 206.727 11.6125 195.626 14.1625 185.435C15.3225 196.872 16.4025 208.437 17.2825 219.529C9.9625 249.411 9.9625 280.589 17.2825 310.472Z" fill="url(#paint5_linear_154_27)"/>
<path d="M8.26251 478.38C10.6525 472.32 12.6725 466.32 14.3925 460.458C16.0825 454.675 17.4625 449.031 18.5925 443.584C25.7225 409.303 22.9225 382.999 22.9225 382.999C22.8725 382.059 22.5325 380.132 21.9725 377.413C23.2425 366.352 24.5425 354.47 25.7425 342.479C29.3925 356.882 32.5325 370.672 34.5725 382.999C38.4025 406.219 31.3525 439.887 26.4525 459.035C24.1425 468.03 22.3225 473.833 22.3225 473.833C27.6125 481.039 30.3525 485.27 30.8125 486.001C30.8325 486.041 30.8525 486.071 30.8825 486.1C31.0525 486.328 31.2225 486.555 31.3925 486.772C31.7325 487.217 32.0625 487.662 32.4025 488.097C26.2625 490.568 21.9725 491.132 21.9725 491.132C11.2825 487.474 8.27251 478.39 8.27251 478.39L8.26251 478.38Z" fill="url(#paint6_linear_154_27)"/>
<path style="mix-blend-mode:multiply" opacity="0.5" d="M74.8625 14.0665V0L73.5825 0.899541C73.0825 1.2554 61.1625 9.66763 46.5725 25.2367C45.0125 26.9073 43.3725 28.6866 41.7025 30.6043L51.7525 28.8447L53.8225 33.9751C62.3525 24.7424 70.0425 18.0107 74.8625 14.0665Z" fill="url(#paint7_linear_154_27)"/>
<path style="mix-blend-mode:multiply" opacity="0.5" d="M74.8625 515.943C70.0425 512.009 62.3725 505.297 53.8525 496.084L51.7525 501.284L41.8225 499.544C43.4525 501.402 45.0425 503.142 46.5725 504.763C61.1625 520.322 73.0925 528.745 73.5825 529.1L74.8625 530V515.953V515.943Z" fill="url(#paint8_linear_154_27)"/>
<path style="mix-blend-mode:color-dodge" opacity="0.5" d="M21.9625 201.35C21.9625 201.35 27.8025 234.455 27.8025 259.8C27.8025 285.146 23.0025 316.847 23.0025 316.847C23.0025 316.847 29.1725 267.768 21.9625 201.35Z" fill="url(#paint9_linear_154_27)"/>
<path style="mix-blend-mode:multiply" opacity="0.7" d="M3.74251 436.942V436.922C3.71251 436.823 3.57251 436.269 3.31251 435.31L3.45251 434.292C3.61251 433.126 19.5325 317.599 19.5325 265C19.5325 212.401 3.61251 96.8741 3.45251 95.7076L3.26251 94.3435L3.73251 93.0485L9.60251 94.9959L9.77251 96.2414C11.4025 108.173 25.7225 214.25 25.7225 265C25.7225 315.75 11.4025 421.827 9.77251 433.749L9.60251 434.994L3.73251 436.942H3.74251Z" fill="url(#paint10_linear_154_27)"/>
<path d="M29.7725 133.182C29.7725 133.182 28.1625 151.618 23.7125 168.126C23.1325 162.818 22.5525 157.618 21.9725 152.587C22.5325 149.868 22.8725 147.941 22.9225 147.001C22.9225 147.001 25.7225 120.687 18.5925 86.4156C17.4625 80.9689 16.0825 75.3147 14.3925 69.5417C14.3925 69.5417 27.8125 92.0897 29.7825 133.182H29.7725Z" fill="url(#paint11_linear_154_27)"/>
<path d="M15.7525 328.186C15.2525 333.632 14.7125 339.109 14.1625 344.555C11.6125 334.374 8.7825 323.273 6.0525 312.696C-2.0175 281.399 -2.0175 248.601 6.0525 217.304C8.7825 206.727 11.6125 195.626 14.1625 185.435C14.6725 190.466 15.1625 195.527 15.6325 200.559C10.6125 222.8 6.3725 246.95 6.3725 265C6.3725 283.05 10.7325 306.063 15.7425 328.186H15.7525Z" fill="url(#paint12_linear_154_27)"/>
<path d="M11.1925 470.462C12.3625 467.091 13.4225 463.75 14.3925 460.458C16.0825 454.675 17.4625 449.031 18.5925 443.584C25.7225 409.303 22.9225 382.999 22.9225 382.999C22.8725 382.059 22.5325 380.132 21.9725 377.413C22.5425 372.412 23.1325 367.242 23.7025 361.963C30.4625 383.602 30.4625 403.55 30.4625 403.55C30.0925 410.43 21.9725 444.691 11.1925 470.472V470.462Z" fill="url(#paint13_linear_154_27)"/>
<path d="M22.3225 56.177C22.3225 56.177 27.9925 74.9093 30.7725 89.8358C30.7725 89.8358 22.5425 71.2914 19.5125 54.5757C19.5125 54.5757 19.5125 42.9508 22.1025 38.631C22.9525 38.799 27.7325 39.7974 32.4025 41.9227C31.8825 42.5949 31.3625 43.2671 30.8625 43.9591C30.5425 44.4632 27.7925 48.7336 22.3325 56.1869L22.3225 56.177Z" fill="url(#paint14_linear_154_27)"/>
<path d="M8.26251 51.62C8.26251 51.62 9.43251 44.1271 19.5125 39.58C18.4125 47.3991 11.2025 52.9347 8.26251 51.62Z" fill="url(#paint15_linear_154_27)"/>
<path d="M21.9625 491.122C19.2825 487.425 17.4725 480.268 17.4725 480.268C21.2525 456.564 31.7925 434.876 31.7925 434.876C28.8725 451.552 22.3225 473.823 22.3225 473.823C27.6025 481.019 30.3425 485.26 30.8125 485.992C30.8325 486.031 30.8525 486.061 30.8825 486.09C31.0525 486.318 31.2225 486.545 31.3925 486.763C31.7325 487.207 32.0625 487.652 32.4025 488.087C26.2625 490.558 21.9725 491.122 21.9725 491.122H21.9625Z" fill="url(#paint16_linear_154_27)"/>
<path d="M19.2825 490.025C10.7625 485.922 8.26251 478.38 8.26251 478.38C11.1325 477.095 17.2825 479.813 19.2825 490.025Z" fill="url(#paint17_linear_154_27)"/>
<path d="M29.5325 484.054C25.8225 484.024 22.3125 480.743 22.3125 480.743C22.3125 480.743 21.7825 477.214 22.3125 473.833C25.8025 478.588 28.1825 482.047 29.5325 484.054Z" fill="url(#paint18_linear_154_27)"/>
<path d="M22.4325 56.009L22.3125 55.9201C21.7825 52.5393 22.3125 49.0104 22.3125 49.0104C22.3125 49.0104 25.8225 45.7186 29.5325 45.6989L29.5925 45.857C28.2725 47.834 25.9125 51.2642 22.4325 56.009Z" fill="url(#paint19_linear_154_27)"/>
<path style="mix-blend-mode:multiply" opacity="0.5" d="M25.7325 187.53C24.5325 175.53 23.2425 163.658 21.9625 152.596C22.1225 151.786 22.2725 151.054 22.3925 150.392L25.7225 159.694C27.0225 166.455 28.3525 176.459 28.3925 176.736C27.5425 180.295 26.6525 183.893 25.7225 187.54L25.7325 187.53Z" fill="url(#paint20_linear_154_27)"/>
<path style="mix-blend-mode:multiply" opacity="0.5" d="M13.8825 236.798C15.7725 217.482 13.8825 207.241 13.8825 207.241C10.6025 207.014 8.64252 207.241 8.64252 207.241C10.5325 199.857 12.4125 192.433 14.1625 185.445C15.3225 196.882 16.4025 208.447 17.2825 219.538C15.8825 225.252 14.7425 231.015 13.8825 236.808V236.798Z" fill="url(#paint21_linear_154_27)"/>
<path style="mix-blend-mode:multiply" opacity="0.5" d="M17.2825 310.472C16.4025 321.553 15.3225 333.128 14.1625 344.555C12.1425 336.459 9.93249 327.78 7.74249 319.249C7.74249 319.249 10.6025 320.09 13.8825 319.872C13.8825 319.872 15.3825 311.737 14.3725 296.296C15.1625 301.041 16.1325 305.776 17.2825 310.462V310.472Z" fill="url(#paint22_linear_154_27)"/>
<path style="mix-blend-mode:multiply" opacity="0.5" d="M22.2725 378.926C22.1825 378.461 22.0825 377.947 21.9725 377.413C23.2425 366.352 24.5425 354.47 25.7425 342.479C26.5725 345.761 27.3725 349.014 28.1525 352.216C27.6725 355.686 26.5625 363.357 25.5725 368.517L22.2725 378.926Z" fill="url(#paint23_linear_154_27)"/>
<defs>
<linearGradient id="paint0_linear_154_27" x1="3.2725" y1="265" x2="150.312" y2="265" gradientUnits="userSpaceOnUse">
<stop stop-color="#B75014"/>
<stop offset="0.39" stop-color="#CA6B34"/>
<stop offset="1" stop-color="#FFA933"/>
</linearGradient>
<linearGradient id="paint1_linear_154_27" x1="144.082" y1="265" x2="9.61248" y2="265" gradientUnits="userSpaceOnUse">
<stop stop-color="#B75014"/>
<stop offset="0.39" stop-color="#CA6B34"/>
<stop offset="1" stop-color="#FFA933"/>
</linearGradient>
<linearGradient id="paint2_linear_154_27" x1="6.02251" y1="75.2356" x2="28.0825" y2="75.2356" gradientUnits="userSpaceOnUse">
<stop stop-color="#F08D1D"/>
<stop offset="1" stop-color="#8D2C1B"/>
</linearGradient>
<linearGradient id="paint3_linear_154_27" x1="6.02252" y1="454.764" x2="28.0725" y2="454.764" gradientUnits="userSpaceOnUse">
<stop stop-color="#F08D1D"/>
<stop offset="1" stop-color="#8D2C1B"/>
</linearGradient>
<linearGradient id="paint4_linear_154_27" x1="-23.4875" y1="113.066" x2="45.8425" y2="113.066" gradientUnits="userSpaceOnUse">
<stop stop-color="#B75014"/>
<stop offset="0.39" stop-color="#CA6B34"/>
<stop offset="1" stop-color="#FFA933"/>
</linearGradient>
<linearGradient id="paint5_linear_154_27" x1="-23.4875" y1="265" x2="45.8425" y2="265" gradientUnits="userSpaceOnUse">
<stop stop-color="#B75014"/>
<stop offset="0.39" stop-color="#CA6B34"/>
<stop offset="1" stop-color="#FFA933"/>
</linearGradient>
<linearGradient id="paint6_linear_154_27" x1="-23.4875" y1="416.806" x2="45.8425" y2="416.806" gradientUnits="userSpaceOnUse">
<stop stop-color="#B75014"/>
<stop offset="0.39" stop-color="#CA6B34"/>
<stop offset="1" stop-color="#FFA933"/>
</linearGradient>
<linearGradient id="paint7_linear_154_27" x1="88.9425" y1="16.9826" x2="21.9125" y2="16.9826" gradientUnits="userSpaceOnUse">
<stop stop-color="#F08D1D"/>
<stop offset="1" stop-color="#8D2C1B"/>
</linearGradient>
<linearGradient id="paint8_linear_154_27" x1="88.9325" y1="513.037" x2="22.0925" y2="513.037" gradientUnits="userSpaceOnUse">
<stop stop-color="#F08D1D"/>
<stop offset="1" stop-color="#8D2C1B"/>
</linearGradient>
<linearGradient id="paint9_linear_154_27" x1="24.8825" y1="182.963" x2="24.8825" y2="183.448" gradientUnits="userSpaceOnUse">
<stop stop-color="#EBBD38"/>
<stop offset="1" stop-color="#FFF29E"/>
</linearGradient>
<linearGradient id="paint10_linear_154_27" x1="20.5625" y1="265" x2="-3.97749" y2="265" gradientUnits="userSpaceOnUse">
<stop stop-color="#F08D1D"/>
<stop offset="1" stop-color="#8D2C1B"/>
</linearGradient>
<linearGradient id="paint11_linear_154_27" x1="52.6025" y1="118.839" x2="-9.51748" y2="118.839" gradientUnits="userSpaceOnUse">
<stop stop-color="#D16509"/>
<stop offset="1" stop-color="#8D2C1B"/>
</linearGradient>
<linearGradient id="paint12_linear_154_27" x1="52.6025" y1="265" x2="-9.5175" y2="265" gradientUnits="userSpaceOnUse">
<stop stop-color="#D16509"/>
<stop offset="1" stop-color="#8D2C1B"/>
</linearGradient>
<linearGradient id="paint13_linear_154_27" x1="52.6025" y1="416.212" x2="-9.5175" y2="416.212" gradientUnits="userSpaceOnUse">
<stop stop-color="#D16509"/>
<stop offset="1" stop-color="#8D2C1B"/>
</linearGradient>
<linearGradient id="paint14_linear_154_27" x1="29.5025" y1="64.2334" x2="16.5825" y2="64.2334" gradientUnits="userSpaceOnUse">
<stop stop-color="#E39330"/>
<stop offset="1" stop-color="#FFCD61"/>
</linearGradient>
<linearGradient id="paint15_linear_154_27" x1="6.95251" y1="45.6988" x2="25.1825" y2="45.6988" gradientUnits="userSpaceOnUse">
<stop stop-color="#D16509"/>
<stop offset="1" stop-color="#8D2C1B"/>
</linearGradient>
<linearGradient id="paint16_linear_154_27" x1="29.0925" y1="463.009" x2="14.3425" y2="463.009" gradientUnits="userSpaceOnUse">
<stop stop-color="#E39330"/>
<stop offset="1" stop-color="#FFCD61"/>
</linearGradient>
<linearGradient id="paint17_linear_154_27" x1="6.95251" y1="484.054" x2="25.1825" y2="484.054" gradientUnits="userSpaceOnUse">
<stop stop-color="#D16509"/>
<stop offset="1" stop-color="#8D2C1B"/>
</linearGradient>
<linearGradient id="paint18_linear_154_27" x1="50.3525" y1="478.943" x2="37.2825" y2="478.943" gradientUnits="userSpaceOnUse">
<stop stop-color="#D16509"/>
<stop offset="1" stop-color="#8D2C1B"/>
</linearGradient>
<linearGradient id="paint19_linear_154_27" x1="50.3525" y1="50.8589" x2="37.2825" y2="50.8589" gradientUnits="userSpaceOnUse">
<stop stop-color="#D16509"/>
<stop offset="1" stop-color="#8D2C1B"/>
</linearGradient>
<linearGradient id="paint20_linear_154_27" x1="21.9725" y1="168.956" x2="28.4025" y2="168.956" gradientUnits="userSpaceOnUse">
<stop stop-color="#F08D1D"/>
<stop offset="1" stop-color="#8D2C1B"/>
</linearGradient>
<linearGradient id="paint21_linear_154_27" x1="8.65252" y1="211.116" x2="17.2825" y2="211.116" gradientUnits="userSpaceOnUse">
<stop stop-color="#F08D1D"/>
<stop offset="1" stop-color="#8D2C1B"/>
</linearGradient>
<linearGradient id="paint22_linear_154_27" x1="7.75249" y1="320.436" x2="17.2825" y2="320.436" gradientUnits="userSpaceOnUse">
<stop stop-color="#F08D1D"/>
<stop offset="1" stop-color="#8D2C1B"/>
</linearGradient>
<linearGradient id="paint23_linear_154_27" x1="21.9725" y1="360.698" x2="28.1525" y2="360.698" gradientUnits="userSpaceOnUse">
<stop stop-color="#F08D1D"/>
<stop offset="1" stop-color="#8D2C1B"/>
</linearGradient>
</defs>
</svg>
