<svg width="75" height="530" viewBox="0 0 75 530" fill="none" xmlns="http://www.w3.org/2000/svg">
<path d="M8.32513e-05 14.0566C12.4701 24.2185 44.0501 53.0435 60.0501 95.5791C58.1501 109.458 44.0501 214.161 44.0501 265C44.0501 315.839 58.15 420.542 60.05 434.421C44.09 476.858 12.47 505.742 3.93758e-05 515.933L3.8147e-05 529.99L1.28004 529.091C1.78004 528.735 13.7 520.322 28.29 504.763C41.75 490.41 60.11 466.992 71.12 436.942L71.59 435.647L71.4 434.283C71.24 433.126 55.3201 317.589 55.3201 264.99C55.3201 212.391 71.2501 96.8741 71.4101 95.7076L71.6001 94.3435L71.1301 93.0485C60.1201 62.9978 41.7601 39.58 28.3001 25.2268C13.7101 9.66766 1.79009 1.24554 1.29009 0.899591L0.0100866 -6.2586e-06L0.0100854 14.0467L8.32513e-05 14.0566Z" fill="url(#paint0_linear_155_4189)"/>
<path d="M0.000120735 14.0568C12.4601 24.2187 44.0501 53.0436 60.0501 95.5793C58.1501 109.458 44.0601 214.161 44.0601 265C44.0601 315.839 58.1501 420.542 60.0501 434.431C44.0901 476.858 12.4701 505.752 7.68583e-05 515.943L7.62939e-05 522.398L1.19006 521.459C11.7101 513.146 47.4101 482.423 64.8101 436.181L65.2601 435.004L65.0901 433.759C63.4601 421.827 49.1401 315.75 49.1401 265C49.1401 214.25 63.4601 108.173 65.0901 96.2515L65.2601 95.006L64.8101 93.8197C47.3801 47.4685 11.7101 16.8246 1.19011 8.54086L0.000121299 7.60177L0.000120735 14.0469L0.000120735 14.0568Z" fill="url(#paint1_linear_155_4189)"/>
<path style="mix-blend-mode:multiply" opacity="0.5" d="M60.98 445.463C60.98 445.463 66.12 444.652 68.85 442.813C64.92 452.432 60.27 461.309 55.36 469.355C55.36 469.355 51.41 466.973 46.79 461.803C50.79 455.091 54.52 447.875 57.76 440.164C57.76 440.164 57.99 442.428 60.98 445.463Z" fill="url(#paint2_linear_155_4189)"/>
<path style="mix-blend-mode:multiply" opacity="0.5" d="M68.8401 87.1768C66.1101 85.3481 60.9801 84.5375 60.9801 84.5375C57.9901 87.5723 57.7601 89.8359 57.7601 89.8359L57.7501 89.8261C54.5101 82.1157 50.7801 74.8897 46.7901 68.1876C51.4101 63.0177 55.3501 60.6353 55.3501 60.6353C60.2701 68.6818 64.9001 77.5586 68.8401 87.1768Z" fill="url(#paint3_linear_155_4189)"/>
<path d="M49.1301 342.47C50.3301 354.47 51.6201 366.342 52.9001 377.404C52.3401 380.122 52.0001 382.05 51.9501 382.989C51.9501 382.989 49.1501 409.303 56.2801 443.575C57.4101 449.021 58.79 454.676 60.48 460.449C62.19 466.32 64.22 472.321 66.61 478.37C66.61 478.37 65.26 487.049 52.91 491.389C52.91 491.389 47.63 490.41 42.48 488.077C43 487.405 43.52 486.733 44.02 486.041C44.34 485.537 47.09 481.267 52.55 473.813C52.55 473.813 50.72 468.011 48.42 459.005C43.5201 439.858 36.4701 406.199 40.3001 382.979C42.3401 370.652 45.4801 356.853 49.1301 342.46L49.1301 342.47Z" fill="url(#paint4_linear_155_4189)"/>
<path d="M57.5801 219.529C58.4601 208.447 59.5401 196.872 60.7001 185.445C63.2501 195.626 66.0801 206.727 68.8101 217.304C76.8801 248.601 76.8801 281.4 68.8101 312.696C66.0801 323.273 63.2501 334.374 60.7001 344.565C59.5401 333.128 58.4601 321.563 57.5801 310.472C64.9001 280.589 64.9001 249.411 57.5801 219.529Z" fill="url(#paint5_linear_155_4189)"/>
<path d="M66.6001 51.6202C64.2101 57.6797 62.1901 63.68 60.4701 69.5419C58.7801 75.3247 57.4001 80.9691 56.2701 86.4158C49.1401 120.697 51.9401 147.002 51.9401 147.002C51.9901 147.941 52.3301 149.868 52.8901 152.587C51.6201 163.648 50.3201 175.53 49.1201 187.521C45.4701 173.118 42.3301 159.328 40.2901 147.002C36.4601 123.781 43.5101 90.1128 48.4101 70.9653C50.7201 61.9699 52.5401 56.1673 52.5401 56.1673C47.2501 48.9611 44.5101 44.7302 44.0501 43.9987C44.0301 43.9592 44.0101 43.9296 43.9801 43.8999C43.8101 43.6725 43.6401 43.4452 43.4701 43.2277C43.1301 42.7829 42.8001 42.338 42.4601 41.9031C48.6001 39.4318 52.8901 38.8684 52.8901 38.8684C63.5801 42.5258 66.5901 51.6103 66.5901 51.6103L66.6001 51.6202Z" fill="url(#paint6_linear_155_4189)"/>
<path style="mix-blend-mode:multiply" opacity="0.5" d="M3.5562e-05 515.934L3.43323e-05 530L1.28003 529.101C1.78003 528.745 13.7 520.332 28.29 504.763C29.85 503.093 31.49 501.314 33.16 499.396L23.11 501.155L21.04 496.025C12.51 505.258 4.82004 511.989 3.5562e-05 515.934Z" fill="url(#paint7_linear_155_4189)"/>
<path style="mix-blend-mode:multiply" opacity="0.5" d="M7.42154e-05 14.0567C4.82007 17.991 12.4901 24.703 21.0101 33.9159L23.1101 28.7164L33.0401 30.4561C31.4101 28.5977 29.8201 26.858 28.2901 25.2368C13.7001 9.67764 1.77007 1.25553 1.28007 0.899663L7.54443e-05 8.48496e-05L7.42163e-05 14.0468L7.42154e-05 14.0567Z" fill="url(#paint8_linear_155_4189)"/>
<path style="mix-blend-mode:color-dodge" opacity="0.5" d="M52.9001 328.65C52.9001 328.65 47.0601 295.545 47.0601 270.2C47.0601 244.854 51.8601 213.153 51.8601 213.153C51.8601 213.153 45.6901 262.232 52.9001 328.65Z" fill="url(#paint9_linear_155_4189)"/>
<path style="mix-blend-mode:multiply" opacity="0.7" d="M71.1201 93.0586L71.1201 93.0784C71.1501 93.1772 71.2901 93.7308 71.5501 94.6896L71.4101 95.7078C71.2501 96.8742 55.3301 212.401 55.3301 265C55.33 317.599 71.25 433.126 71.41 434.293L71.6 435.657L71.13 436.952L65.26 435.004L65.09 433.759C63.46 421.827 49.14 315.75 49.1401 265C49.1401 214.25 63.4601 108.173 65.0901 96.2515L65.2601 95.006L71.1301 93.0586L71.1201 93.0586Z" fill="url(#paint10_linear_155_4189)"/>
<path d="M45.09 396.818C45.09 396.818 46.7 378.382 51.15 361.874C51.73 367.182 52.31 372.382 52.89 377.414C52.33 380.132 51.99 382.06 51.94 382.999C51.94 382.999 49.14 409.313 56.27 443.584C57.4 449.031 58.78 454.685 60.47 460.458C60.47 460.458 47.05 437.91 45.08 396.818L45.09 396.818Z" fill="url(#paint11_linear_155_4189)"/>
<path d="M59.1101 201.815C59.6101 196.368 60.1501 190.891 60.7001 185.445C63.2501 195.626 66.0801 206.727 68.8101 217.304C76.8801 248.601 76.8801 281.4 68.8101 312.696C66.0801 323.273 63.2501 334.374 60.7001 344.565C60.1901 339.534 59.7001 334.473 59.2301 329.441C64.2501 307.2 68.4901 283.05 68.4901 265C68.4901 246.95 64.1301 223.937 59.1201 201.815L59.1101 201.815Z" fill="url(#paint12_linear_155_4189)"/>
<path d="M63.6701 59.5382C62.5001 62.909 61.4401 66.2502 60.4701 69.5419C58.7801 75.3247 57.4001 80.9691 56.2701 86.4158C49.1401 120.697 51.9401 147.002 51.9401 147.002C51.9901 147.941 52.3301 149.868 52.8901 152.587C52.3201 157.589 51.7301 162.758 51.1601 168.037C44.4001 146.399 44.4001 126.45 44.4001 126.45C44.7701 119.57 52.8901 85.3087 63.6701 59.5283L63.6701 59.5382Z" fill="url(#paint13_linear_155_4189)"/>
<path d="M52.54 473.823C52.54 473.823 46.87 455.091 44.09 440.164C44.09 440.164 52.32 458.709 55.35 475.424C55.35 475.424 55.35 487.049 52.76 491.369C51.91 491.201 47.13 490.203 42.46 488.077C42.98 487.405 43.5 486.733 44 486.041C44.32 485.537 47.07 481.267 52.53 473.813L52.54 473.823Z" fill="url(#paint14_linear_155_4189)"/>
<path d="M66.6 478.38C66.6 478.38 65.43 485.873 55.35 490.42C56.45 482.601 63.66 477.065 66.6 478.38Z" fill="url(#paint15_linear_155_4189)"/>
<path d="M52.9001 38.8782C55.5801 42.5753 57.3901 49.7321 57.3901 49.7321C53.6101 73.4365 43.0701 95.1245 43.0701 95.1245C45.9901 78.4483 52.5401 56.1772 52.5401 56.1772C47.2601 48.9808 44.5201 44.7401 44.0501 44.0086C44.0301 43.9691 44.0101 43.9394 43.9801 43.9098C43.8101 43.6824 43.6401 43.4551 43.4701 43.2376C43.1301 42.7928 42.8001 42.3479 42.4601 41.913C48.6001 39.4417 52.8901 38.8782 52.8901 38.8782L52.9001 38.8782Z" fill="url(#paint16_linear_155_4189)"/>
<path d="M55.5801 39.9755C64.1001 44.0779 66.6001 51.6202 66.6001 51.6202C63.7301 52.9053 57.5801 50.1869 55.5801 39.9755Z" fill="url(#paint17_linear_155_4189)"/>
<path d="M45.3301 45.9461C49.0401 45.9758 52.5501 49.2576 52.5501 49.2576C52.5501 49.2576 53.0801 52.7866 52.5501 56.1673C49.0601 51.4126 46.6801 47.9528 45.3301 45.9461Z" fill="url(#paint18_linear_155_4189)"/>
<path d="M52.43 473.991L52.55 474.08C53.08 477.461 52.55 480.99 52.55 480.99C52.55 480.99 49.04 484.281 45.33 484.301L45.27 484.143C46.59 482.166 48.95 478.736 52.43 473.991Z" fill="url(#paint19_linear_155_4189)"/>
<path style="mix-blend-mode:multiply" opacity="0.5" d="M49.13 342.47C50.33 354.47 51.62 366.342 52.9 377.404C52.74 378.214 52.59 378.946 52.47 379.608L49.14 370.306C47.84 363.545 46.51 353.541 46.47 353.264C47.32 349.706 48.21 346.107 49.14 342.46L49.13 342.47Z" fill="url(#paint20_linear_155_4189)"/>
<path style="mix-blend-mode:multiply" opacity="0.5" d="M60.9801 293.202C59.0901 312.518 60.9801 322.759 60.9801 322.759C64.2601 322.986 66.2201 322.759 66.2201 322.759C64.3301 330.143 62.4501 337.567 60.7001 344.555C59.5401 333.118 58.4601 321.553 57.5801 310.462C58.9801 304.748 60.1201 298.985 60.9801 293.192L60.9801 293.202Z" fill="url(#paint21_linear_155_4189)"/>
<path style="mix-blend-mode:multiply" opacity="0.5" d="M57.5801 219.529C58.4601 208.447 59.5401 196.872 60.7001 185.445C62.7201 193.541 64.9301 202.22 67.1201 210.751C67.1201 210.751 64.2601 209.91 60.9801 210.128C60.9801 210.128 59.4801 218.263 60.4901 233.704C59.7001 228.959 58.7301 224.224 57.5801 219.539L57.5801 219.529Z" fill="url(#paint22_linear_155_4189)"/>
<path style="mix-blend-mode:multiply" opacity="0.5" d="M52.5901 151.074C52.6801 151.539 52.7801 152.053 52.8901 152.587C51.6201 163.648 50.3201 175.53 49.1201 187.521C48.2901 184.239 47.4901 180.987 46.7101 177.784C47.1901 174.314 48.3001 166.643 49.2901 161.483L52.5901 151.074Z" fill="url(#paint23_linear_155_4189)"/>
<defs>
<linearGradient id="paint0_linear_155_4189" x1="71.5901" y1="265" x2="-75.4499" y2="265" gradientUnits="userSpaceOnUse">
<stop stop-color="#B75014"/>
<stop offset="0.39" stop-color="#CA6B34"/>
<stop offset="1" stop-color="#FFA933"/>
</linearGradient>
<linearGradient id="paint1_linear_155_4189" x1="-69.2199" y1="265" x2="65.2501" y2="265" gradientUnits="userSpaceOnUse">
<stop stop-color="#B75014"/>
<stop offset="0.39" stop-color="#CA6B34"/>
<stop offset="1" stop-color="#FFA933"/>
</linearGradient>
<linearGradient id="paint2_linear_155_4189" x1="68.84" y1="454.765" x2="46.78" y2="454.765" gradientUnits="userSpaceOnUse">
<stop stop-color="#F08D1D"/>
<stop offset="1" stop-color="#8D2C1B"/>
</linearGradient>
<linearGradient id="paint3_linear_155_4189" x1="68.8401" y1="75.2356" x2="46.7901" y2="75.2356" gradientUnits="userSpaceOnUse">
<stop stop-color="#F08D1D"/>
<stop offset="1" stop-color="#8D2C1B"/>
</linearGradient>
<linearGradient id="paint4_linear_155_4189" x1="98.3501" y1="416.934" x2="29.0201" y2="416.934" gradientUnits="userSpaceOnUse">
<stop stop-color="#B75014"/>
<stop offset="0.39" stop-color="#CA6B34"/>
<stop offset="1" stop-color="#FFA933"/>
</linearGradient>
<linearGradient id="paint5_linear_155_4189" x1="98.3501" y1="265" x2="29.0201" y2="265" gradientUnits="userSpaceOnUse">
<stop stop-color="#B75014"/>
<stop offset="0.39" stop-color="#CA6B34"/>
<stop offset="1" stop-color="#FFA933"/>
</linearGradient>
<linearGradient id="paint6_linear_155_4189" x1="98.3501" y1="113.194" x2="29.0201" y2="113.194" gradientUnits="userSpaceOnUse">
<stop stop-color="#B75014"/>
<stop offset="0.39" stop-color="#CA6B34"/>
<stop offset="1" stop-color="#FFA933"/>
</linearGradient>
<linearGradient id="paint7_linear_155_4189" x1="-14.08" y1="513.018" x2="52.95" y2="513.018" gradientUnits="userSpaceOnUse">
<stop stop-color="#F08D1D"/>
<stop offset="1" stop-color="#8D2C1B"/>
</linearGradient>
<linearGradient id="paint8_linear_155_4189" x1="-14.0699" y1="16.9629" x2="52.7701" y2="16.9629" gradientUnits="userSpaceOnUse">
<stop stop-color="#F08D1D"/>
<stop offset="1" stop-color="#8D2C1B"/>
</linearGradient>
<linearGradient id="paint9_linear_155_4189" x1="49.9801" y1="347.037" x2="49.9801" y2="346.552" gradientUnits="userSpaceOnUse">
<stop stop-color="#EBBD38"/>
<stop offset="1" stop-color="#FFF29E"/>
</linearGradient>
<linearGradient id="paint10_linear_155_4189" x1="54.3001" y1="265" x2="78.8401" y2="265" gradientUnits="userSpaceOnUse">
<stop stop-color="#F08D1D"/>
<stop offset="1" stop-color="#8D2C1B"/>
</linearGradient>
<linearGradient id="paint11_linear_155_4189" x1="22.26" y1="411.161" x2="84.38" y2="411.161" gradientUnits="userSpaceOnUse">
<stop stop-color="#D16509"/>
<stop offset="1" stop-color="#8D2C1B"/>
</linearGradient>
<linearGradient id="paint12_linear_155_4189" x1="22.2601" y1="265" x2="84.3801" y2="265" gradientUnits="userSpaceOnUse">
<stop stop-color="#D16509"/>
<stop offset="1" stop-color="#8D2C1B"/>
</linearGradient>
<linearGradient id="paint13_linear_155_4189" x1="22.2601" y1="113.788" x2="84.3801" y2="113.788" gradientUnits="userSpaceOnUse">
<stop stop-color="#D16509"/>
<stop offset="1" stop-color="#8D2C1B"/>
</linearGradient>
<linearGradient id="paint14_linear_155_4189" x1="45.36" y1="465.767" x2="58.28" y2="465.767" gradientUnits="userSpaceOnUse">
<stop stop-color="#E39330"/>
<stop offset="1" stop-color="#FFCD61"/>
</linearGradient>
<linearGradient id="paint15_linear_155_4189" x1="67.91" y1="484.301" x2="49.68" y2="484.301" gradientUnits="userSpaceOnUse">
<stop stop-color="#D16509"/>
<stop offset="1" stop-color="#8D2C1B"/>
</linearGradient>
<linearGradient id="paint16_linear_155_4189" x1="45.7701" y1="66.9915" x2="60.5201" y2="66.9915" gradientUnits="userSpaceOnUse">
<stop stop-color="#E39330"/>
<stop offset="1" stop-color="#FFCD61"/>
</linearGradient>
<linearGradient id="paint17_linear_155_4189" x1="67.9101" y1="45.9462" x2="49.6801" y2="45.9462" gradientUnits="userSpaceOnUse">
<stop stop-color="#D16509"/>
<stop offset="1" stop-color="#8D2C1B"/>
</linearGradient>
<linearGradient id="paint18_linear_155_4189" x1="24.5101" y1="51.0567" x2="37.5801" y2="51.0567" gradientUnits="userSpaceOnUse">
<stop stop-color="#D16509"/>
<stop offset="1" stop-color="#8D2C1B"/>
</linearGradient>
<linearGradient id="paint19_linear_155_4189" x1="24.51" y1="479.141" x2="37.58" y2="479.141" gradientUnits="userSpaceOnUse">
<stop stop-color="#D16509"/>
<stop offset="1" stop-color="#8D2C1B"/>
</linearGradient>
<linearGradient id="paint20_linear_155_4189" x1="52.89" y1="361.044" x2="46.46" y2="361.044" gradientUnits="userSpaceOnUse">
<stop stop-color="#F08D1D"/>
<stop offset="1" stop-color="#8D2C1B"/>
</linearGradient>
<linearGradient id="paint21_linear_155_4189" x1="66.2101" y1="318.884" x2="57.5801" y2="318.884" gradientUnits="userSpaceOnUse">
<stop stop-color="#F08D1D"/>
<stop offset="1" stop-color="#8D2C1B"/>
</linearGradient>
<linearGradient id="paint22_linear_155_4189" x1="67.1101" y1="209.564" x2="57.5801" y2="209.564" gradientUnits="userSpaceOnUse">
<stop stop-color="#F08D1D"/>
<stop offset="1" stop-color="#8D2C1B"/>
</linearGradient>
<linearGradient id="paint23_linear_155_4189" x1="52.8901" y1="169.302" x2="46.7101" y2="169.302" gradientUnits="userSpaceOnUse">
<stop stop-color="#F08D1D"/>
<stop offset="1" stop-color="#8D2C1B"/>
</linearGradient>
</defs>
</svg>
