<svg width="312" height="77" viewBox="0 0 312 77" fill="none" xmlns="http://www.w3.org/2000/svg">
<path d="M165.88 57.9905C165.377 59.3934 164.673 60.3575 163.958 61.0128C162.571 62.2911 161.152 62.4211 161.152 62.4211C158.937 67.8861 155.979 68.6281 155.979 68.6281C155.979 68.6281 153.022 67.8915 150.807 62.4211C150.807 62.4211 149.388 62.2911 148.001 61.0128C147.286 60.3575 146.582 59.3934 146.078 57.9905C146.078 57.9905 147.557 52.9859 149.691 48.4091C151.489 44.5528 153.748 40.9943 155.979 40.9943C158.341 40.9943 160.735 44.9806 162.576 49.0808C164.537 53.4625 165.88 57.9851 165.88 57.9851V57.9905Z" fill="url(#paint0_linear_154_106)"/>
<path d="M150.807 62.4265C150.807 62.4265 149.388 62.2965 148.001 61.0182C149.843 61.0941 151.072 56.956 151.17 56.6148C151.11 56.9073 150.525 59.8321 150.807 62.4265Z" fill="url(#paint1_linear_154_106)"/>
<path d="M161.152 62.4265C161.434 59.8321 160.849 56.9073 160.789 56.6148C160.887 56.956 162.122 61.0941 163.963 61.0182C162.576 62.2965 161.157 62.4265 161.157 62.4265H161.152Z" fill="url(#paint2_linear_154_106)"/>
<path style="mix-blend-mode:multiply" opacity="0.5" d="M162.582 49.0862C160.247 51.9947 156.754 54.3725 155.985 54.1504C155.129 53.9067 153.369 54.2154 149.697 48.4146C151.495 44.5582 153.753 40.9997 155.985 40.9997C158.346 40.9997 160.74 44.9861 162.582 49.0862Z" fill="url(#paint3_linear_154_106)"/>
<path d="M177.26 24.9404C176.962 19.8166 165.88 18.7334 165.88 18.7334C165.88 18.7334 166.617 15.7761 165.241 12.8242C163.86 9.86693 157.166 3.56238 155.979 3.56238C154.793 3.56238 148.099 9.86693 146.718 12.8242C145.336 15.7815 146.078 18.7334 146.078 18.7334C146.078 18.7334 134.997 19.8166 134.699 24.9404C134.401 30.0642 147.996 41.9909 147.996 41.9909L155.974 41.8934L163.952 41.9909C163.952 41.9909 177.547 30.0642 177.249 24.9404H177.26Z" fill="url(#paint4_linear_154_106)"/>
<path d="M136.958 30.2051C135.555 28.1956 134.623 26.3216 134.704 24.9404C134.742 24.3284 134.932 23.7705 135.241 23.2668C135.945 22.801 136.947 22.5952 138.252 22.7739C142.314 23.3372 147.552 31.2179 150.141 41.9584L148.001 41.9855C148.001 41.9855 140.754 35.6268 136.958 30.2051Z" fill="url(#paint5_linear_154_106)"/>
<path d="M150.135 41.9583L147.996 41.9854C147.996 41.9854 140.749 35.6267 136.952 30.205C136.914 29.8367 134.851 25.1841 136.952 24.0034C139.059 22.8226 146.36 27.9735 150.135 41.9583Z" fill="url(#paint6_linear_154_106)"/>
<path d="M177.249 25.4279C177.098 27.0311 175.846 29.1489 174.173 31.3371C170.241 36.4771 163.963 41.9909 163.963 41.9909L161.114 41.953C163.703 31.2125 168.941 23.3372 173.003 22.7739C175.689 22.4002 177.087 23.673 177.255 25.4279H177.249Z" fill="url(#paint7_linear_154_106)"/>
<path d="M174.286 30.205C174.286 30.205 174.243 30.6221 174.173 31.337C170.241 36.4771 163.963 41.9908 163.963 41.9908L161.114 41.9529C164.884 27.9681 172.19 22.8226 174.292 24.0034C176.399 25.1841 174.335 29.8421 174.292 30.205H174.286Z" fill="url(#paint8_linear_154_106)"/>
<path style="mix-blend-mode:multiply" opacity="0.5" d="M160.264 39.0769C164.326 31.3207 166.406 26.6736 164.689 24.7454C162.988 22.8334 149.35 22.3785 146.907 24.4475C144.47 26.5165 151.175 39.0769 151.175 39.0769H160.264Z" fill="url(#paint9_linear_154_106)"/>
<path d="M165.88 18.7334C165.88 18.7334 165.864 18.7496 165.826 18.7875C165.815 18.793 165.81 18.8038 165.799 18.8146C165.794 18.8146 165.788 18.82 165.783 18.8309C165.767 18.8471 165.75 18.858 165.729 18.8796C165.138 19.4158 162.966 21.3765 160.54 23.191C160.513 23.2072 160.491 23.2289 160.464 23.2451C158.958 24.3717 157.355 25.4387 155.985 26.0724C155.985 26.0724 155.969 26.0616 155.958 26.0562C155.947 26.0562 155.942 26.0454 155.931 26.0454C155.92 26.0399 155.914 26.0345 155.904 26.0291C155.21 25.6554 150.52 23.0772 146.089 18.7334C146.089 18.7334 145.353 15.7761 146.728 12.8242C146.837 12.5913 146.978 12.3422 147.146 12.0714C147.53 11.4593 148.061 10.7606 148.673 10.0403C149.491 15.0666 157.323 16.621 159.462 15.6569C161.607 14.6983 163.649 11.026 162.479 9.09241C163.73 10.4681 164.786 11.833 165.247 12.8242C166.628 15.7815 165.886 18.7334 165.886 18.7334H165.88Z" fill="url(#paint10_linear_154_106)"/>
<path style="mix-blend-mode:multiply" opacity="0.5" d="M165.88 18.7333C165.88 18.7333 165.864 18.7496 165.826 18.7875L165.799 18.8146C165.799 18.8146 165.788 18.82 165.783 18.8308C165.767 18.8471 165.75 18.8579 165.729 18.8796C165.171 19.4103 163.145 21.2898 160.54 23.1909C160.513 23.2072 160.491 23.2288 160.464 23.2451C159.088 24.2471 157.55 25.2545 155.985 26.0724C155.985 26.0724 155.969 26.0615 155.958 26.0561C155.947 26.0561 155.942 26.0453 155.931 26.0453C155.92 26.0399 155.914 26.0345 155.904 26.029C155.2 25.677 150.455 23.2072 146.089 18.7333C146.089 18.7333 145.353 15.776 146.728 12.8242C146.837 12.5913 146.978 12.3421 147.146 12.0713C146.75 18.4625 155.985 25.4116 155.985 25.4116C155.985 25.4116 162.241 20.7048 165.247 12.8296C166.628 15.7869 165.886 18.7387 165.886 18.7387L165.88 18.7333Z" fill="url(#paint11_linear_154_106)"/>
<path d="M155.839 5.6043C155.357 6.17842 156.684 9.15196 157.832 9.03822C158.975 8.92989 159.533 7.97121 159.164 7.32126C158.796 6.67131 156.402 4.9381 155.844 5.6043H155.839Z" fill="url(#paint12_linear_154_106)"/>
<path d="M165.88 21.1219C166.715 22.3622 170.463 22.671 170.094 21.4902C169.726 20.3095 167.581 19.9412 166.845 20.1578C166.108 20.3799 165.62 20.7265 165.886 21.1165L165.88 21.1219Z" fill="url(#paint13_linear_154_106)"/>
<path style="mix-blend-mode:multiply" opacity="0.5" d="M165.88 57.9905C165.377 59.3934 164.673 60.3575 163.958 61.0128C162.571 62.2911 161.152 62.4211 161.152 62.4211C158.937 67.8861 155.979 68.6281 155.979 68.6281C155.979 68.6281 153.022 67.8915 150.807 62.4211C150.807 62.4211 149.388 62.2911 148.001 61.0128C147.286 60.3575 146.582 59.3934 146.078 57.9905C146.078 57.9905 147.075 54.6162 148.613 50.879C148.489 52.7692 148.202 57.8226 148.662 58.7813C149.231 59.9621 150.769 59.7617 150.769 59.7617C152.042 63.1143 155.692 66.3695 156.451 66.1745C157.209 65.9741 160.524 60.5958 161.06 58.3318C161.06 58.3318 161.791 59.7671 163.416 59.2742C165.041 58.7813 163.205 50.5432 163.205 50.5432C164.819 54.4158 165.88 57.996 165.88 57.996V57.9905Z" fill="url(#paint14_linear_154_106)"/>
<path d="M163.958 40.9998C163.958 45.4086 160.383 48.978 155.979 48.978C151.576 48.978 148.001 45.4032 148.001 40.9998C148.001 36.5964 151.576 33.0216 155.979 33.0216C160.383 33.0216 163.958 36.5964 163.958 40.9998Z" fill="url(#paint15_radial_154_106)"/>
<path style="mix-blend-mode:multiply" opacity="0.5" d="M163.958 40.9998C163.958 45.4086 160.383 48.978 155.979 48.978C151.576 48.978 148.001 45.4032 148.001 40.9998C148.001 38.9416 148.781 37.073 150.054 35.6593C149.55 36.5909 149.263 37.6525 149.263 38.7845C149.263 42.4134 152.204 45.3545 155.833 45.3545C159.462 45.3545 162.403 42.4134 162.403 38.7845C162.403 37.3438 161.937 36.0114 161.147 34.9227C162.869 36.3851 163.958 38.5625 163.958 40.9944V40.9998Z" fill="url(#paint16_linear_154_106)"/>
<path d="M156.819 34.9228C154.712 35.876 154.75 38.1888 154.847 38.5842C154.945 38.9796 159.527 40.3066 159.971 39.3695C160.415 38.4325 160.069 35.8219 159.625 35.4807C159.18 35.134 157.225 34.7386 156.819 34.9228Z" fill="url(#paint17_linear_154_106)"/>
<path d="M139.687 46.0207C137.808 43.5075 133.518 46.6598 133.372 50.3537C133.226 54.0476 138.507 58.8464 142.19 60.2059C143.127 60.5526 148.494 58.6785 151.029 53.1106C153.564 47.5427 151.154 42.8251 148.001 41.9856C144.849 41.1406 139.687 46.0207 139.687 46.0207Z" fill="url(#paint18_linear_154_106)"/>
<path d="M42.4001 38.6058C36.8755 31.2451 32.1471 28.7319 29.6339 28.7319C27.1208 28.7319 10.7203 35.8543 5.69397 42.4189C0.667666 48.978 -0.215179 57.9961 1.55594 62.7245C3.32707 67.4529 11.6031 76.3194 17.5177 76.7635C23.4269 77.2076 30.2243 67.5992 30.2243 63.6128C30.2243 59.6264 21.2116 58.294 19.4351 59.0306C19.4351 59.0306 15.4433 53.1377 16.7757 49.3571C16.7757 49.3571 24.1635 39.9653 30.8147 41.5902C37.4659 43.2151 52.1873 54.833 52.1873 54.833L42.4001 38.6058Z" fill="url(#paint19_linear_154_106)"/>
<path d="M137.754 48.9779C137.754 48.9779 139.725 48.8317 139.725 46.7627C139.725 44.6936 138.691 37.0079 124.359 37.1596C124.359 37.1596 111.208 39.9652 86.9706 55.6291C86.9706 55.6291 74.5565 62.8707 62.8845 60.5038C51.2124 58.1368 40.2769 44.2495 40.5694 24.7401C40.5694 24.7401 45.5957 8.63206 57.7119 1.83463C57.7119 1.83463 70.2723 -2.74754 85.0479 2.57125C85.0479 2.57125 99.3793 15.8736 81.2077 29.761C81.2077 29.761 73.9662 33.899 68.057 33.7528C68.057 33.7528 65.3976 39.9598 68.057 44.6882C68.057 44.6882 76.4793 46.611 81.2077 44.9861C81.2077 44.9861 94.6563 31.3913 111.057 27.6974C127.457 24.0035 145.559 30.2863 148.397 43.475C149.534 48.7559 147.07 54.5567 141.155 53.8526C137.017 53.3597 137.754 48.9779 137.754 48.9779Z" fill="url(#paint20_linear_154_106)"/>
<path d="M81.2077 29.7665C81.2077 29.7665 73.9662 33.9045 68.057 33.7583C68.057 33.7583 65.3976 39.9653 68.057 44.6937C68.057 44.6937 76.4793 46.6165 81.2077 44.9916C74.8544 49.1297 69.9581 53.1215 61.915 54.0043C61.915 54.0043 57.6794 54.3943 52.1873 54.833C45.3357 48.6151 40.369 37.9667 40.5694 24.7456C40.5694 24.7456 45.5957 8.63756 57.7119 1.84013C57.7119 1.84013 70.2723 -2.74205 85.0479 2.57674C85.0479 2.57674 99.3794 15.8791 81.2077 29.7665Z" fill="url(#paint21_linear_154_106)"/>
<path d="M81.2077 29.7665C81.2077 29.7665 73.9662 33.9045 68.057 33.7583C68.057 33.7583 65.3976 39.9653 68.057 44.6937C58.156 44.9916 55.6916 50.2617 57.9557 52.7261C58.416 53.2298 58.2752 53.7931 57.7552 54.3726C56.1899 54.5026 54.278 54.6651 52.1819 54.833C45.3303 48.6151 40.3636 37.9667 40.564 24.7456C40.564 24.7456 45.5903 8.63756 57.7065 1.84013C57.7065 1.84013 70.2668 -2.74205 85.0425 2.57674C85.0425 2.57674 99.3739 15.8791 81.2023 29.7665H81.2077Z" fill="url(#paint22_linear_154_106)"/>
<path style="mix-blend-mode:multiply" opacity="0.5" d="M70.6893 21.3279C70.6893 21.3279 68.3712 29.6039 63.3719 33.1191C53.5631 32.7725 46.9227 25.7259 46.9227 25.7259C44.9512 27.5999 43.4509 31.4076 43.4509 31.4076C43.4509 31.4076 42.3676 30.4976 40.6886 29.084C40.5856 27.6703 40.5423 26.2242 40.5694 24.7455C40.5694 24.7455 45.5957 8.63752 57.7119 1.84009C57.7119 1.84009 71.973 8.15005 70.6947 21.3279H70.6893Z" fill="url(#paint23_linear_154_106)"/>
<path d="M61.4166 21.967C61.4166 21.967 59.8243 20.5263 57.7823 21.967C55.7404 23.4077 57.5982 28.6182 60.3171 30.2106C61.33 30.8009 65.3164 27.6974 66.4267 24.0793L61.4166 21.967Z" fill="url(#paint24_linear_154_106)"/>
<path d="M66.4267 20.1092C66.4267 20.4179 66.3725 20.7862 66.2805 21.1924C66.2696 21.252 66.2534 21.3116 66.2371 21.3712C66.1017 21.902 65.8959 22.4923 65.6468 23.099C65.6034 23.2019 65.5601 23.3048 65.5168 23.4077C65.4789 23.4889 65.4464 23.5702 65.4084 23.6514C65.3814 23.711 65.3543 23.776 65.3218 23.8356C65.181 24.1443 65.0239 24.4585 64.8668 24.7618C64.8018 24.8863 64.7368 25.0055 64.6718 25.1301C64.6339 25.1897 64.6014 25.2492 64.5689 25.3088C64.531 25.3684 64.4985 25.428 64.466 25.4876C64.3306 25.7259 64.1898 25.9588 64.049 26.1808C62.7816 26.365 60.3171 25.8234 60.3171 25.8234C60.3171 25.8234 62.7815 22.4707 60.42 19.7138L66.3996 19.5026C66.3996 19.5351 66.405 19.5621 66.4105 19.5946C66.4159 19.6813 66.4213 19.768 66.4267 19.8546C66.4267 19.9413 66.4321 20.0225 66.4321 20.1038L66.4267 20.1092Z" fill="url(#paint25_linear_154_106)"/>
<path d="M139.687 46.0206C139.406 43.2854 137.315 37.0188 124.359 37.1542C124.359 37.1542 111.208 39.9598 86.9706 55.6237C86.9706 55.6237 74.5565 62.8653 62.8845 60.4984C51.2124 58.1314 40.2769 44.2441 40.5694 24.7347C40.5694 24.7347 45.5957 8.62665 57.7119 1.82922C67.7104 2.07296 73.327 12.6185 73.4245 17.7368C73.522 22.8606 63.9677 32.7128 61.9962 32.7616C60.0247 32.8103 54.8034 25.325 55.8866 22.5682C56.9699 19.8059 60.4201 19.7084 60.4201 19.7084C62.787 22.4652 60.3171 25.8179 60.3171 25.8179C60.3171 25.8179 60.615 23.7489 60.4201 22.7631C60.2196 21.7774 58.7464 22.1728 57.9557 23.4564C57.1703 24.7347 59.1364 28.7752 61.0104 28.9702C62.879 29.1706 66.4267 22.6656 66.4267 20.1037C66.4267 17.5418 64.6556 12.3206 59.7268 11.1398C54.8034 9.95906 44.7562 18.4301 42.9796 24.1443C41.2085 29.8585 48.2984 48.3767 57.9502 52.7152C67.6075 57.0482 78.8354 52.1248 78.8354 52.1248C99.5256 38.7249 119.23 29.4631 129.667 32.025C140.11 34.5869 139.676 46.0152 139.676 46.0152L139.687 46.0206Z" fill="url(#paint26_linear_154_106)"/>
<path d="M81.2077 29.7664C81.2077 29.7664 73.9662 33.9044 68.057 33.7582C68.057 33.7582 65.7443 33.8015 61.9962 32.7724C63.9677 32.7237 73.522 22.8769 73.4245 17.7477C73.3866 15.7761 72.5308 13.003 70.9222 10.322C70.9222 10.322 73.7441 12.6889 75.8889 19.1288C76.3818 20.6075 84.6091 19.7246 87.5123 17.0598C90.4154 14.395 88.2814 6.8772 88.2814 6.8772C91.087 11.9143 93.0477 20.7158 81.2023 29.7664H81.2077Z" fill="url(#paint27_linear_154_106)"/>
<path style="mix-blend-mode:color-dodge" opacity="0.5" d="M82.8055 1.84012C82.8055 1.84012 81.9443 8.26924 77.7413 9.37416C73.5329 10.4845 70.9222 10.322 70.9222 10.322L69.774 8.59963C75.5585 10.7824 81.1373 5.8265 75.2173 0.285645C77.6167 0.556458 80.1678 1.04392 82.8109 1.8347L82.8055 1.84012Z" fill="url(#paint28_linear_154_106)"/>
<path d="M64.9481 0.30735C67.4883 0.00945489 70.5756 -0.131368 74.0203 0.166527C74.5403 2.44678 66.3346 2.30596 64.9481 0.30735Z" fill="url(#paint29_linear_154_106)"/>
<path d="M77.7305 19.0693C77.4055 19.8492 81.1102 19.4755 82.096 18.8797C83.0818 18.2839 81.6519 18.0402 80.3249 18.0402C78.9979 18.0402 77.9796 18.4735 77.7359 19.0638L77.7305 19.0693Z" fill="url(#paint30_linear_154_106)"/>
<path style="mix-blend-mode:color-dodge" opacity="0.5" d="M105.37 35.3073C105.884 33.8287 101.968 32.1279 91.959 36.3635C93.6435 35.2369 95.4905 34.0941 97.4566 33.0162C102.104 32.2038 105.001 33.092 106.475 34.7169C107.785 36.1577 110.006 35.3452 110.494 35.1448L102.131 38.7846C102.288 38.6654 104.866 36.7372 105.37 35.3073Z" fill="url(#paint31_linear_154_106)"/>
<path d="M121.391 31.9979C121.391 31.9979 110.45 32.2958 94.2014 42.8901C94.2014 42.8901 106.924 35.5185 121.391 31.9979Z" fill="url(#paint32_linear_154_106)"/>
<path d="M114.642 31.5755C113.83 31.868 112.091 33.0216 113.272 32.9187C114.669 32.7996 117.123 32.4096 117.112 31.998C117.096 31.4509 115.298 31.3372 114.642 31.5701V31.5755Z" fill="url(#paint33_linear_154_106)"/>
<path style="mix-blend-mode:multiply" opacity="0.5" d="M141.155 53.8526C137.017 53.3597 137.754 48.9779 137.754 48.9779C137.754 48.9779 139.725 48.8317 139.725 46.7627C139.725 46.5623 139.714 46.3186 139.687 46.0261C139.687 46.0261 139.828 42.2726 137.981 38.5841C141.274 44.7695 145.488 41.6714 145.488 40.6315C145.488 38.7899 143.5 34.8523 143.441 34.7061C145.911 37.138 147.66 40.079 148.391 43.4804C149.529 48.7613 147.07 54.5621 141.15 53.858L141.155 53.8526Z" fill="url(#paint34_linear_154_106)"/>
<path d="M52.1873 54.833C52.1873 54.833 37.4659 43.2151 30.8147 41.5902C24.1635 39.9653 16.7757 49.3571 16.7757 49.3571C15.4433 53.1323 19.4351 59.0252 19.4351 59.0252C16.2828 60.7963 17.0681 63.0657 17.6639 64.2465C18.2543 65.4272 22.1974 67.0034 22.9827 67.0034C23.7681 67.0034 24.3639 65.2323 24.3639 65.2323C24.3639 65.2323 24.5589 68.1896 22.7877 69.3703C22.7877 69.3703 13.1359 67.3988 9.59911 52.2982C9.30121 51.0145 10.7744 46.0207 14.1217 43.0634C17.4689 40.1061 28.1228 34.8848 30.5763 35.4752C35.9926 36.7805 40.5694 42.3756 40.5694 42.3756C40.5694 42.3756 41.1056 39.2125 39.6378 35.2261C40.5369 36.2173 41.4631 37.3384 42.4109 38.6004L52.1981 54.8276L52.1873 54.833Z" fill="url(#paint35_linear_154_106)"/>
<path d="M27.9386 69.3703C25.4471 73.2104 21.2983 77.0451 17.5177 76.7581C11.6086 76.3139 3.33248 67.4475 1.55594 62.7191C0.494346 59.8918 0.38601 55.5317 1.54509 51.0795L1.55051 51.0687C1.18762 57.6224 6.06227 65.8984 17.8643 73.1129C20.2908 74.597 24.5589 73.8983 27.9386 69.3703Z" fill="url(#paint36_linear_154_106)"/>
<path style="mix-blend-mode:multiply" opacity="0.5" d="M13.3255 75.3553C13.2713 75.3282 13.2172 75.3011 13.1684 75.2686C13.1251 75.247 13.0818 75.2199 13.0384 75.1928C12.7893 75.0303 12.4156 74.8028 11.9498 74.5266C7.32428 71.488 2.81251 66.0718 1.55594 62.7245C0.494346 59.8972 0.38601 55.5371 1.54509 51.0849L1.55051 51.0741C1.18762 57.6278 6.06227 65.9039 17.8643 73.1184C18.4547 75.117 15.427 76.4439 13.3309 75.3607L13.3255 75.3553Z" fill="url(#paint37_linear_154_106)"/>
<path d="M24.3639 65.2323C24.3639 65.2323 23.7735 67.0034 22.9827 67.0034C22.192 67.0034 18.2543 65.4272 17.6639 64.2465C21.4337 64.8585 23.5027 65.1293 24.0931 63.4016C24.0931 63.4016 24.4018 64.1761 24.3639 65.2268V65.2323Z" fill="url(#paint38_linear_154_106)"/>
<path d="M6.27351 42.5867C5.16859 43.6158 10.0812 41.6985 10.5957 41.406C11.1157 41.1081 11.3377 39.4832 10.3032 39.4128C9.26871 39.3424 6.98304 41.9205 6.27351 42.5867Z" fill="url(#paint39_linear_154_106)"/>
<path style="mix-blend-mode:color-dodge" opacity="0.5" d="M12.4481 44.8779C11.5327 45.9611 10.3249 48.7018 10.3249 48.7018C10.3086 45.2516 15.5895 35.2315 9.55577 38.7142C11.1157 37.5009 12.9085 36.3256 14.7717 35.2261C16.4615 38.2484 12.4481 44.8779 12.4481 44.8779Z" fill="url(#paint40_linear_154_106)"/>
<path d="M173.03 46.0207C174.909 43.5075 179.199 46.6598 179.345 50.3537C179.492 54.0476 174.211 58.8464 170.528 60.2059C169.591 60.5526 164.223 58.6785 161.688 53.1106C159.153 47.5427 161.564 42.8251 164.716 41.9856C167.868 41.1406 173.03 46.0207 173.03 46.0207Z" fill="url(#paint41_linear_154_106)"/>
<path d="M270.317 38.6058C275.842 31.2451 280.57 28.7319 283.083 28.7319C285.596 28.7319 301.997 35.8543 307.023 42.4189C312.05 48.978 312.932 57.9961 311.161 62.7245C309.39 67.4529 301.114 76.3194 295.199 76.7635C289.29 77.2076 282.493 67.5992 282.493 63.6128C282.493 59.6264 291.506 58.294 293.282 59.0306C293.282 59.0306 297.274 53.1377 295.942 49.3571C295.942 49.3571 288.554 39.9653 281.903 41.5902C275.251 43.2151 260.53 54.833 260.53 54.833L270.317 38.6058Z" fill="url(#paint42_linear_154_106)"/>
<path d="M174.964 48.9779C174.964 48.9779 172.992 48.8317 172.992 46.7627C172.992 44.6936 174.026 37.0079 188.358 37.1596C188.358 37.1596 201.509 39.9652 225.747 55.6291C225.747 55.6291 238.161 62.8707 249.833 60.5038C261.505 58.1368 272.44 44.2495 272.148 24.7401C272.148 24.7401 267.121 8.63206 255.005 1.83463C255.005 1.83463 242.445 -2.74754 227.669 2.57125C227.669 2.57125 213.332 15.8736 231.509 29.761C231.509 29.761 238.751 33.899 244.66 33.7528C244.66 33.7528 247.32 39.9598 244.66 44.6882C244.66 44.6882 236.238 46.611 231.509 44.9861C231.509 44.9861 218.061 31.3913 201.66 27.6974C185.26 24.0035 167.159 30.2863 164.321 43.475C163.183 48.7559 165.648 54.5567 171.562 53.8526C175.7 53.3597 174.964 48.9779 174.964 48.9779Z" fill="url(#paint43_linear_154_106)"/>
<path d="M231.509 29.7665C231.509 29.7665 238.751 33.9045 244.66 33.7583C244.66 33.7583 247.32 39.9653 244.66 44.6937C244.66 44.6937 236.238 46.6165 231.509 44.9916C237.863 49.1297 242.759 53.1215 250.802 54.0043C250.802 54.0043 255.038 54.3943 260.53 54.833C267.381 48.6151 272.348 37.9667 272.148 24.7456C272.148 24.7456 267.121 8.63756 255.005 1.84013C255.005 1.84013 242.445 -2.74205 227.669 2.57674C227.669 2.57674 213.332 15.8791 231.509 29.7665Z" fill="url(#paint44_linear_154_106)"/>
<path d="M231.509 29.7665C231.509 29.7665 238.751 33.9045 244.66 33.7583C244.66 33.7583 247.32 39.9653 244.66 44.6937C254.561 44.9916 257.026 50.2617 254.762 52.7261C254.301 53.2298 254.442 53.7931 254.962 54.3726C256.527 54.5026 258.439 54.6651 260.535 54.833C267.387 48.6151 272.354 37.9667 272.153 24.7456C272.153 24.7456 267.127 8.63756 255.011 1.84013C255.011 1.84013 242.45 -2.74205 227.675 2.57674C227.675 2.57674 213.338 15.8791 231.515 29.7665H231.509Z" fill="url(#paint45_linear_154_106)"/>
<path style="mix-blend-mode:multiply" opacity="0.5" d="M244.216 21.1654C244.216 21.1654 244.725 27.7353 250.721 31.4076C262.036 25.2005 265.795 25.7259 265.795 25.7259C267.766 27.5999 269.266 31.4076 269.266 31.4076C269.266 31.4076 270.35 30.4976 272.029 29.084C272.132 27.6703 272.175 26.2242 272.148 24.7455C272.148 24.7455 267.121 8.63752 255.005 1.84009C255.005 1.84009 243.225 10.3328 244.216 21.1708V21.1654Z" fill="url(#paint46_linear_154_106)"/>
<path d="M251.301 21.967C251.301 21.967 252.893 20.5263 254.935 21.967C256.977 23.4077 255.119 28.6182 252.4 30.2106C251.387 30.8009 247.401 27.6974 246.29 24.0793L251.301 21.967Z" fill="url(#paint47_linear_154_106)"/>
<path d="M246.285 20.1092C246.285 20.4179 246.339 20.7862 246.431 21.1924C246.442 21.252 246.458 21.3116 246.475 21.3712C246.61 21.902 246.816 22.4923 247.065 23.099C247.108 23.2019 247.152 23.3048 247.195 23.4077C247.233 23.4889 247.265 23.5702 247.303 23.6514C247.33 23.711 247.357 23.776 247.39 23.8356C247.531 24.1443 247.688 24.4585 247.845 24.7618C247.91 24.8863 247.975 25.0055 248.04 25.1301C248.078 25.1897 248.11 25.2492 248.143 25.3088C248.181 25.3684 248.213 25.428 248.246 25.4876C248.381 25.7259 248.522 25.9588 248.663 26.1808C249.93 26.365 252.395 25.8234 252.395 25.8234C252.395 25.8234 249.93 22.4707 252.292 19.7138L246.312 19.5026C246.312 19.5351 246.307 19.5621 246.301 19.5946C246.296 19.6813 246.291 19.768 246.285 19.8546C246.28 19.9413 246.28 20.0225 246.28 20.1038L246.285 20.1092Z" fill="url(#paint48_linear_154_106)"/>
<path d="M173.03 46.0206C173.312 43.2854 175.402 37.0188 188.358 37.1542C188.358 37.1542 201.509 39.9598 225.747 55.6237C225.747 55.6237 238.161 62.8653 249.833 60.4984C261.505 58.1314 272.44 44.2441 272.148 24.7347C272.148 24.7347 267.121 8.62665 255.005 1.82922C245.007 2.07296 239.39 12.6185 239.293 17.7368C239.195 22.8606 248.749 32.7128 250.721 32.7616C252.693 32.8103 257.914 25.325 256.831 22.5682C255.747 19.8059 252.297 19.7084 252.297 19.7084C249.93 22.4652 252.4 25.8179 252.4 25.8179C252.4 25.8179 252.102 23.7489 252.297 22.7631C252.498 21.7774 253.971 22.1728 254.762 23.4564C255.547 24.7347 253.581 28.7752 251.707 28.9702C249.838 29.1706 246.291 22.6656 246.291 20.1037C246.291 17.5418 248.062 12.3206 252.99 11.1398C257.914 9.95906 267.961 18.4301 269.738 24.1443C271.509 29.8585 264.419 48.3767 254.767 52.7152C245.11 57.0482 233.882 52.1248 233.882 52.1248C213.192 38.7249 193.487 29.4631 183.05 32.025C172.607 34.5869 173.041 46.0152 173.041 46.0152L173.03 46.0206Z" fill="url(#paint49_linear_154_106)"/>
<path d="M231.509 29.7664C231.509 29.7664 238.751 33.9044 244.66 33.7582C244.66 33.7582 246.973 33.8015 250.721 32.7724C248.749 32.7237 239.195 22.8769 239.293 17.7477C239.331 15.7761 240.186 13.003 241.795 10.322C241.795 10.322 238.973 12.6889 236.828 19.1288C236.335 20.6075 228.108 19.7246 225.205 17.0598C222.302 14.395 224.436 6.8772 224.436 6.8772C221.63 11.9143 219.669 20.7158 231.515 29.7664H231.509Z" fill="url(#paint50_linear_154_106)"/>
<path style="mix-blend-mode:color-dodge" opacity="0.5" d="M229.912 1.84012C229.912 1.84012 230.773 8.26924 234.976 9.37416C239.184 10.4845 241.795 10.322 241.795 10.322L242.943 8.59963C237.159 10.7824 231.58 5.8265 237.5 0.285645C235.1 0.556458 232.549 1.04392 229.906 1.8347L229.912 1.84012Z" fill="url(#paint51_linear_154_106)"/>
<path d="M247.769 0.30735C245.229 0.00945489 242.142 -0.131368 238.697 0.166527C238.177 2.44678 246.383 2.30596 247.769 0.30735Z" fill="url(#paint52_linear_154_106)"/>
<path d="M234.987 19.0693C235.312 19.8492 231.607 19.4755 230.621 18.8797C229.635 18.2839 231.065 18.0402 232.392 18.0402C233.719 18.0402 234.738 18.4735 234.981 19.0638L234.987 19.0693Z" fill="url(#paint53_linear_154_106)"/>
<path style="mix-blend-mode:color-dodge" opacity="0.5" d="M207.347 35.3073C206.833 33.8287 210.749 32.1279 220.758 36.3635C219.074 35.2369 217.227 34.0941 215.261 33.0162C210.613 32.2038 207.716 33.092 206.243 34.7169C204.932 36.1577 202.711 35.3452 202.224 35.1448L210.586 38.7846C210.429 38.6654 207.851 36.7372 207.347 35.3073Z" fill="url(#paint54_linear_154_106)"/>
<path d="M191.326 31.9979C191.326 31.9979 202.267 32.2958 218.516 42.8901C218.516 42.8901 205.793 35.5185 191.326 31.9979Z" fill="url(#paint55_linear_154_106)"/>
<path d="M198.075 31.5755C198.887 31.868 200.626 33.0216 199.445 32.9187C198.048 32.7996 195.594 32.4096 195.605 31.998C195.621 31.4509 197.419 31.3372 198.075 31.5701V31.5755Z" fill="url(#paint56_linear_154_106)"/>
<path style="mix-blend-mode:multiply" opacity="0.5" d="M171.562 53.8526C175.7 53.3597 174.964 48.9779 174.964 48.9779C174.964 48.9779 172.992 48.8317 172.992 46.7627C172.992 46.5623 173.003 46.3186 173.03 46.0261C173.03 46.0261 172.889 42.2726 174.736 38.5841C171.443 44.7695 167.229 41.6714 167.229 40.6315C167.229 38.7899 169.217 34.8523 169.276 34.7061C166.807 37.138 165.057 40.079 164.326 43.4804C163.189 48.7613 165.648 54.5621 171.568 53.858L171.562 53.8526Z" fill="url(#paint57_linear_154_106)"/>
<path d="M260.53 54.833C260.53 54.833 275.251 43.2151 281.903 41.5902C288.554 39.9653 295.942 49.3571 295.942 49.3571C297.274 53.1323 293.282 59.0252 293.282 59.0252C296.434 60.7963 295.649 63.0657 295.053 64.2465C294.463 65.4272 290.52 67.0034 289.734 67.0034C288.949 67.0034 288.353 65.2323 288.353 65.2323C288.353 65.2323 288.158 68.1896 289.929 69.3703C289.929 69.3703 299.581 67.3988 303.118 52.2982C303.416 51.0145 301.943 46.0207 298.596 43.0634C295.248 40.1061 284.594 34.8848 282.141 35.4752C276.725 36.7805 272.148 42.3756 272.148 42.3756C272.148 42.3756 271.612 39.2125 273.079 35.2261C272.18 36.2173 271.254 37.3384 270.306 38.6004L260.519 54.8276L260.53 54.833Z" fill="url(#paint58_linear_154_106)"/>
<path d="M284.779 69.3703C287.27 73.2104 291.419 77.0451 295.199 76.7581C301.109 76.3139 309.385 67.4475 311.161 62.7191C312.223 59.8918 312.331 55.5317 311.172 51.0795L311.167 51.0687C311.53 57.6224 306.655 65.8984 294.853 73.1129C292.426 74.597 288.158 73.8983 284.779 69.3703Z" fill="url(#paint59_linear_154_106)"/>
<path style="mix-blend-mode:multiply" opacity="0.5" d="M299.386 75.3553C299.44 75.3282 299.495 75.3011 299.543 75.2686C299.587 75.247 299.63 75.2199 299.673 75.1928C299.922 75.0303 300.296 74.8028 300.762 74.5266C305.388 71.488 309.899 66.0718 311.156 62.7245C312.217 59.8972 312.326 55.5371 311.167 51.0849L311.161 51.0741C311.524 57.6278 306.649 65.9039 294.847 73.1184C294.257 75.117 297.285 76.4439 299.381 75.3607L299.386 75.3553Z" fill="url(#paint60_linear_154_106)"/>
<path d="M288.353 65.2323C288.353 65.2323 288.944 67.0034 289.734 67.0034C290.525 67.0034 294.463 65.4272 295.053 64.2465C291.283 64.8585 289.214 65.1293 288.624 63.4016C288.624 63.4016 288.315 64.1761 288.353 65.2268V65.2323Z" fill="url(#paint61_linear_154_106)"/>
<path d="M291.543 37.1543C292.648 38.1833 287.736 36.266 287.221 35.9735C286.701 35.6756 286.517 34.7873 287.552 34.7169C288.586 34.6465 290.829 36.4881 291.543 37.1543Z" fill="url(#paint62_linear_154_106)"/>
<path style="mix-blend-mode:color-dodge" opacity="0.5" d="M300.264 44.8779C301.179 45.9611 302.387 48.7018 302.387 48.7018C302.403 45.2516 297.122 35.2315 303.156 38.7142C301.596 37.5009 299.803 36.3256 297.94 35.2261C296.25 38.2484 300.264 44.8779 300.264 44.8779Z" fill="url(#paint63_linear_154_106)"/>
<defs>
<linearGradient id="paint0_linear_154_106" x1="155.979" y1="70.6809" x2="155.979" y2="47.8784" gradientUnits="userSpaceOnUse">
<stop stop-color="#CA6B34"/>
<stop offset="0.74" stop-color="#FFBD2B"/>
<stop offset="1" stop-color="#FFA933"/>
</linearGradient>
<linearGradient id="paint1_linear_154_106" x1="149.588" y1="64.1326" x2="149.588" y2="56.3061" gradientUnits="userSpaceOnUse">
<stop stop-color="#B75014"/>
<stop offset="0.39" stop-color="#CA6B34"/>
<stop offset="1" stop-color="#FFA933"/>
</linearGradient>
<linearGradient id="paint2_linear_154_106" x1="162.376" y1="64.1326" x2="162.376" y2="56.3061" gradientUnits="userSpaceOnUse">
<stop stop-color="#B75014"/>
<stop offset="0.39" stop-color="#CA6B34"/>
<stop offset="1" stop-color="#FFA933"/>
</linearGradient>
<linearGradient id="paint3_linear_154_106" x1="149.691" y1="47.5805" x2="162.582" y2="47.5805" gradientUnits="userSpaceOnUse">
<stop stop-color="#F08D1D"/>
<stop offset="1" stop-color="#8D2C1B"/>
</linearGradient>
<linearGradient id="paint4_linear_154_106" x1="157.946" y1="64.0893" x2="155.389" y2="13.3713" gradientUnits="userSpaceOnUse">
<stop stop-color="#CA6B34"/>
<stop offset="0.74" stop-color="#FFBD2B"/>
<stop offset="1" stop-color="#FFA933"/>
</linearGradient>
<linearGradient id="paint5_linear_154_106" x1="134.693" y1="32.3499" x2="150.135" y2="32.3499" gradientUnits="userSpaceOnUse">
<stop stop-color="#D16509"/>
<stop offset="1" stop-color="#8D2C1B"/>
</linearGradient>
<linearGradient id="paint6_linear_154_106" x1="143.072" y1="41.2596" x2="143.072" y2="31.3262" gradientUnits="userSpaceOnUse">
<stop stop-color="#B53E1C"/>
<stop offset="1" stop-color="#440000"/>
</linearGradient>
<linearGradient id="paint7_linear_154_106" x1="161.109" y1="32.3499" x2="177.249" y2="32.3499" gradientUnits="userSpaceOnUse">
<stop stop-color="#D16509"/>
<stop offset="1" stop-color="#8D2C1B"/>
</linearGradient>
<linearGradient id="paint8_linear_154_106" x1="168.172" y1="41.2596" x2="168.172" y2="31.3262" gradientUnits="userSpaceOnUse">
<stop stop-color="#B53E1C"/>
<stop offset="1" stop-color="#440000"/>
</linearGradient>
<linearGradient id="paint9_linear_154_106" x1="156.348" y1="40.7559" x2="155.443" y2="15.2452" gradientUnits="userSpaceOnUse">
<stop stop-color="#D33A22"/>
<stop offset="1" stop-color="white"/>
</linearGradient>
<linearGradient id="paint10_linear_154_106" x1="156.229" y1="25.2817" x2="155.779" y2="9.92651" gradientUnits="userSpaceOnUse">
<stop stop-color="#B75014"/>
<stop offset="0.39" stop-color="#CA6B34"/>
<stop offset="1" stop-color="#FFA933"/>
</linearGradient>
<linearGradient id="paint11_linear_154_106" x1="154.712" y1="26.354" x2="156.743" y2="11.0043" gradientUnits="userSpaceOnUse">
<stop stop-color="#D33A22"/>
<stop offset="1" stop-color="white"/>
</linearGradient>
<linearGradient id="paint12_linear_154_106" x1="155.736" y1="7.25085" x2="159.273" y2="7.25085" gradientUnits="userSpaceOnUse">
<stop stop-color="white"/>
<stop offset="1" stop-color="#FFF7C4"/>
</linearGradient>
<linearGradient id="paint13_linear_154_106" x1="165.81" y1="21.1652" x2="170.116" y2="21.1652" gradientUnits="userSpaceOnUse">
<stop stop-color="white"/>
<stop offset="1" stop-color="#FFF7C4"/>
</linearGradient>
<linearGradient id="paint14_linear_154_106" x1="146.078" y1="59.5829" x2="165.88" y2="59.5829" gradientUnits="userSpaceOnUse">
<stop stop-color="#F08D1D"/>
<stop offset="1" stop-color="#8D2C1B"/>
</linearGradient>
<radialGradient id="paint15_radial_154_106" cx="0" cy="0" r="1" gradientUnits="userSpaceOnUse" gradientTransform="translate(156.581 36.331) scale(7.97818 7.97818)">
<stop stop-color="#FFA933"/>
<stop offset="0.26" stop-color="#FFBD2B"/>
<stop offset="1" stop-color="#CA6B34"/>
</radialGradient>
<linearGradient id="paint16_linear_154_106" x1="155.979" y1="47.5806" x2="155.979" y2="29.9668" gradientUnits="userSpaceOnUse">
<stop stop-color="#D33A22"/>
<stop offset="1" stop-color="white"/>
</linearGradient>
<linearGradient id="paint17_linear_154_106" x1="154.81" y1="37.2897" x2="160.177" y2="37.2897" gradientUnits="userSpaceOnUse">
<stop stop-color="white"/>
<stop offset="1" stop-color="#FFF7C4"/>
</linearGradient>
<linearGradient id="paint18_linear_154_106" x1="142.731" y1="60.3738" x2="142.731" y2="43.6104" gradientUnits="userSpaceOnUse">
<stop stop-color="#CA6B34"/>
<stop offset="0.74" stop-color="#FFBD2B"/>
<stop offset="1" stop-color="#FFA933"/>
</linearGradient>
<linearGradient id="paint19_linear_154_106" x1="20.8271" y1="50.6787" x2="6.94514" y2="39.5049" gradientUnits="userSpaceOnUse">
<stop stop-color="#CA6B34"/>
<stop offset="0.74" stop-color="#FFBD2B"/>
<stop offset="1" stop-color="#FFA933"/>
</linearGradient>
<linearGradient id="paint20_linear_154_106" x1="92.4249" y1="48.8479" x2="95.81" y2="28.7535" gradientUnits="userSpaceOnUse">
<stop stop-color="#CA6B34"/>
<stop offset="0.74" stop-color="#FFBD2B"/>
<stop offset="1" stop-color="#FFA933"/>
</linearGradient>
<linearGradient id="paint21_linear_154_106" x1="62.267" y1="21.8533" x2="79.6533" y2="40.8157" gradientUnits="userSpaceOnUse">
<stop stop-color="#CA6B34"/>
<stop offset="0.74" stop-color="#FFBD2B"/>
<stop offset="1" stop-color="#FFA933"/>
</linearGradient>
<linearGradient id="paint22_linear_154_106" x1="44.6099" y1="34.8415" x2="101.199" y2="5.79401" gradientUnits="userSpaceOnUse">
<stop stop-color="#CE5719"/>
<stop offset="0.74" stop-color="#FFBD2B"/>
<stop offset="1" stop-color="#FFA933"/>
</linearGradient>
<linearGradient id="paint23_linear_154_106" x1="42.8388" y1="22.8173" x2="63.3069" y2="16.6428" gradientUnits="userSpaceOnUse">
<stop stop-color="#D33A22"/>
<stop offset="1" stop-color="white"/>
</linearGradient>
<linearGradient id="paint24_linear_154_106" x1="63.8486" y1="33.7203" x2="61.59" y2="24.0143" gradientUnits="userSpaceOnUse">
<stop stop-color="#B53E1C"/>
<stop offset="1" stop-color="#440000"/>
</linearGradient>
<linearGradient id="paint25_linear_154_106" x1="60.9075" y1="22.8661" x2="69.5032" y2="22.8661" gradientUnits="userSpaceOnUse">
<stop stop-color="#D16509"/>
<stop offset="1" stop-color="#8D2C1B"/>
</linearGradient>
<linearGradient id="paint26_linear_154_106" x1="98.464" y1="81.1073" x2="86.2719" y2="16.9948" gradientUnits="userSpaceOnUse">
<stop stop-color="#D16509"/>
<stop offset="1" stop-color="#8D2C1B"/>
</linearGradient>
<linearGradient id="paint27_linear_154_106" x1="80.6444" y1="3.64368" x2="70.711" y2="50.1478" gradientUnits="userSpaceOnUse">
<stop stop-color="#B75014"/>
<stop offset="0.39" stop-color="#CA6B34"/>
<stop offset="1" stop-color="#FFA933"/>
</linearGradient>
<linearGradient id="paint28_linear_154_106" x1="69.774" y1="5.31195" x2="82.8055" y2="5.31195" gradientUnits="userSpaceOnUse">
<stop stop-color="#EBBD38"/>
<stop offset="1" stop-color="#FFF29E"/>
</linearGradient>
<linearGradient id="paint29_linear_154_106" x1="64.9481" y1="0.924806" x2="74.042" y2="0.924806" gradientUnits="userSpaceOnUse">
<stop stop-color="white"/>
<stop offset="1" stop-color="#FFF7C4"/>
</linearGradient>
<linearGradient id="paint30_linear_154_106" x1="77.7088" y1="18.7768" x2="82.421" y2="18.7768" gradientUnits="userSpaceOnUse">
<stop stop-color="white"/>
<stop offset="1" stop-color="#FFF7C4"/>
</linearGradient>
<linearGradient id="paint31_linear_154_106" x1="91.959" y1="35.746" x2="110.494" y2="35.746" gradientUnits="userSpaceOnUse">
<stop stop-color="#EBBD38"/>
<stop offset="1" stop-color="#FFF29E"/>
</linearGradient>
<linearGradient id="paint32_linear_154_106" x1="107.796" y1="50.137" x2="107.796" y2="36.6668" gradientUnits="userSpaceOnUse">
<stop stop-color="#E39330"/>
<stop offset="1" stop-color="#FFCD61"/>
</linearGradient>
<linearGradient id="paint33_linear_154_106" x1="112.877" y1="32.1929" x2="117.118" y2="32.1929" gradientUnits="userSpaceOnUse">
<stop stop-color="white"/>
<stop offset="1" stop-color="#FFF7C4"/>
</linearGradient>
<linearGradient id="paint34_linear_154_106" x1="143.181" y1="51.6428" x2="143.181" y2="34.4298" gradientUnits="userSpaceOnUse">
<stop stop-color="#D33A22"/>
<stop offset="1" stop-color="white"/>
</linearGradient>
<linearGradient id="paint35_linear_154_106" x1="38.3" y1="92.5466" x2="26.1133" y2="28.4341" gradientUnits="userSpaceOnUse">
<stop stop-color="#D16509"/>
<stop offset="1" stop-color="#8D2C1B"/>
</linearGradient>
<linearGradient id="paint36_linear_154_106" x1="0.716408" y1="63.9215" x2="27.9386" y2="63.9215" gradientUnits="userSpaceOnUse">
<stop stop-color="#D16509"/>
<stop offset="1" stop-color="#8D2C1B"/>
</linearGradient>
<linearGradient id="paint37_linear_154_106" x1="16.8407" y1="75.4149" x2="6.76097" y2="63.6724" gradientUnits="userSpaceOnUse">
<stop stop-color="#D33A22"/>
<stop offset="1" stop-color="white"/>
</linearGradient>
<linearGradient id="paint38_linear_154_106" x1="21.0166" y1="59.7347" x2="21.0166" y2="70.2531" gradientUnits="userSpaceOnUse">
<stop stop-color="#B53E1C"/>
<stop offset="1" stop-color="#440000"/>
</linearGradient>
<linearGradient id="paint39_linear_154_106" x1="6.11102" y1="41.1514" x2="11.0344" y2="41.1514" gradientUnits="userSpaceOnUse">
<stop stop-color="white"/>
<stop offset="1" stop-color="#FFF7C4"/>
</linearGradient>
<linearGradient id="paint40_linear_154_106" x1="9.55577" y1="41.9639" x2="15.1887" y2="41.9639" gradientUnits="userSpaceOnUse">
<stop stop-color="#EBBD38"/>
<stop offset="1" stop-color="#FFF29E"/>
</linearGradient>
<linearGradient id="paint41_linear_154_106" x1="169.986" y1="60.3738" x2="169.986" y2="43.6104" gradientUnits="userSpaceOnUse">
<stop stop-color="#CA6B34"/>
<stop offset="0.74" stop-color="#FFBD2B"/>
<stop offset="1" stop-color="#FFA933"/>
</linearGradient>
<linearGradient id="paint42_linear_154_106" x1="282.325" y1="67.0954" x2="294.517" y2="38.3187" gradientUnits="userSpaceOnUse">
<stop stop-color="#CA6B34"/>
<stop offset="0.74" stop-color="#FFBD2B"/>
<stop offset="1" stop-color="#FFA933"/>
</linearGradient>
<linearGradient id="paint43_linear_154_106" x1="164.05" y1="30.4922" x2="272.153" y2="30.4922" gradientUnits="userSpaceOnUse">
<stop stop-color="#CA6B34"/>
<stop offset="0.74" stop-color="#FFBD2B"/>
<stop offset="1" stop-color="#FFA933"/>
</linearGradient>
<linearGradient id="paint44_linear_154_106" x1="222.302" y1="27.4158" x2="272.153" y2="27.4158" gradientUnits="userSpaceOnUse">
<stop stop-color="#CA6B34"/>
<stop offset="0.74" stop-color="#FFBD2B"/>
<stop offset="1" stop-color="#FFA933"/>
</linearGradient>
<linearGradient id="paint45_linear_154_106" x1="269.396" y1="47.2394" x2="233.053" y2="2.31676" gradientUnits="userSpaceOnUse">
<stop stop-color="#CE5719"/>
<stop offset="0.74" stop-color="#FFBD2B"/>
<stop offset="1" stop-color="#FFA933"/>
</linearGradient>
<linearGradient id="paint46_linear_154_106" x1="268.714" y1="32.4529" x2="254.263" y2="17.5527" gradientUnits="userSpaceOnUse">
<stop stop-color="#D33A22"/>
<stop offset="1" stop-color="white"/>
</linearGradient>
<linearGradient id="paint47_linear_154_106" x1="249.979" y1="31.9654" x2="250.878" y2="25.4226" gradientUnits="userSpaceOnUse">
<stop stop-color="#B53E1C"/>
<stop offset="1" stop-color="#440000"/>
</linearGradient>
<linearGradient id="paint48_linear_154_106" x1="252.4" y1="23.2452" x2="242.467" y2="21.7395" gradientUnits="userSpaceOnUse">
<stop stop-color="#D16509"/>
<stop offset="1" stop-color="#8D2C1B"/>
</linearGradient>
<linearGradient id="paint49_linear_154_106" x1="215.217" y1="77.89" x2="226.505" y2="15.5866" gradientUnits="userSpaceOnUse">
<stop stop-color="#D16509"/>
<stop offset="1" stop-color="#8D2C1B"/>
</linearGradient>
<linearGradient id="paint50_linear_154_106" x1="222.302" y1="20.3204" x2="250.721" y2="20.3204" gradientUnits="userSpaceOnUse">
<stop stop-color="#B75014"/>
<stop offset="0.39" stop-color="#CA6B34"/>
<stop offset="1" stop-color="#FFA933"/>
</linearGradient>
<linearGradient id="paint51_linear_154_106" x1="229.912" y1="5.31195" x2="242.943" y2="5.31195" gradientUnits="userSpaceOnUse">
<stop stop-color="#EBBD38"/>
<stop offset="1" stop-color="#FFF29E"/>
</linearGradient>
<linearGradient id="paint52_linear_154_106" x1="238.675" y1="0.924806" x2="247.769" y2="0.924806" gradientUnits="userSpaceOnUse">
<stop stop-color="white"/>
<stop offset="1" stop-color="#FFF7C4"/>
</linearGradient>
<linearGradient id="paint53_linear_154_106" x1="230.296" y1="18.7768" x2="235.008" y2="18.7768" gradientUnits="userSpaceOnUse">
<stop stop-color="white"/>
<stop offset="1" stop-color="#FFF7C4"/>
</linearGradient>
<linearGradient id="paint54_linear_154_106" x1="202.224" y1="35.746" x2="220.758" y2="35.746" gradientUnits="userSpaceOnUse">
<stop stop-color="#EBBD38"/>
<stop offset="1" stop-color="#FFF29E"/>
</linearGradient>
<linearGradient id="paint55_linear_154_106" x1="204.921" y1="50.137" x2="204.921" y2="36.6668" gradientUnits="userSpaceOnUse">
<stop stop-color="#E39330"/>
<stop offset="1" stop-color="#FFCD61"/>
</linearGradient>
<linearGradient id="paint56_linear_154_106" x1="195.6" y1="32.1929" x2="199.84" y2="32.1929" gradientUnits="userSpaceOnUse">
<stop stop-color="white"/>
<stop offset="1" stop-color="#FFF7C4"/>
</linearGradient>
<linearGradient id="paint57_linear_154_106" x1="169.531" y1="51.6428" x2="169.531" y2="34.4298" gradientUnits="userSpaceOnUse">
<stop stop-color="#D33A22"/>
<stop offset="1" stop-color="white"/>
</linearGradient>
<linearGradient id="paint58_linear_154_106" x1="275.441" y1="88.8039" x2="286.728" y2="26.495" gradientUnits="userSpaceOnUse">
<stop stop-color="#D16509"/>
<stop offset="1" stop-color="#8D2C1B"/>
</linearGradient>
<linearGradient id="paint59_linear_154_106" x1="284.779" y1="63.9215" x2="312.001" y2="63.9215" gradientUnits="userSpaceOnUse">
<stop stop-color="#D16509"/>
<stop offset="1" stop-color="#8D2C1B"/>
</linearGradient>
<linearGradient id="paint60_linear_154_106" x1="294.782" y1="63.407" x2="312.001" y2="63.407" gradientUnits="userSpaceOnUse">
<stop stop-color="#D33A22"/>
<stop offset="1" stop-color="white"/>
</linearGradient>
<linearGradient id="paint61_linear_154_106" x1="292.659" y1="68.0216" x2="291.078" y2="62.6054" gradientUnits="userSpaceOnUse">
<stop stop-color="#B53E1C"/>
<stop offset="1" stop-color="#440000"/>
</linearGradient>
<linearGradient id="paint62_linear_154_106" x1="286.804" y1="36.0872" x2="291.706" y2="36.0872" gradientUnits="userSpaceOnUse">
<stop stop-color="white"/>
<stop offset="1" stop-color="#FFF7C4"/>
</linearGradient>
<linearGradient id="paint63_linear_154_106" x1="297.528" y1="41.9639" x2="303.161" y2="41.9639" gradientUnits="userSpaceOnUse">
<stop stop-color="#EBBD38"/>
<stop offset="1" stop-color="#FFF29E"/>
</linearGradient>
</defs>
</svg>
