<svg width="48" height="45" viewBox="0 0 48 45" fill="none" xmlns="http://www.w3.org/2000/svg">
<path fill-rule="evenodd" clip-rule="evenodd" d="M45.4331 2.96218C45.5088 2.9513 45.5504 2.94532 45.5548 2.94532L45.561 2.95153L48 2.56007L47.9386 5.058L47.9381 5.07297C47.9273 5.40388 47.784 9.80018 46.1938 22.6367C45.0756 31.6591 38.9505 37.3882 33.5011 40.7622C30.101 42.8695 26.9614 44.0563 25.4564 44.5603C24.9493 44.7304 24.6239 44.8243 24.5314 44.8509L23.9784 45L23.4255 44.8509C23.0999 44.7577 19.8807 43.8256 16.0102 41.6694C16.0121 41.665 16.0141 41.6606 16.016 41.6562C10.2493 38.4296 3.03404 32.5094 1.80622 22.6367C0.184308 9.54433 0.0614361 5.22577 0.0614361 5.05178L0 2.55385L2.43901 2.94532C2.43999 2.94546 2.44329 2.94597 2.44887 2.94683C2.68929 2.98386 7.15889 3.67233 11.9923 3.67233C19.1189 3.67233 21.6808 2.23074 22.5778 1.36703L23.9969 0L25.4161 1.36703C26.3069 2.23074 28.875 3.67233 36.0015 3.67233C40.493 3.67233 44.6745 3.07122 45.4331 2.96218ZM32.6538 36.2964C32.6536 36.2958 32.6534 36.2952 32.6532 36.2945C30.0606 28.4341 22.4548 24.3206 22.4548 24.3206C19.0206 21.5493 18.3509 19.3185 19.7639 16.8268C21.5579 13.8877 25.3608 16.1495 25.3608 16.1495C22.3012 19.0141 25.0597 21.7357 25.0597 21.7357C25.0597 21.7357 26.1779 21.0522 28.6414 22.3384C31.105 23.6185 29.7596 26.3339 29.7596 26.3339L31.2218 27.2411H31.2402C31.9221 27.6636 32.8191 27.4648 33.2676 26.7937L34.183 25.4205C34.6315 24.7556 34.6192 23.8794 34.1523 23.2208C33.7161 22.6056 33.0833 21.7357 32.2354 20.6048C31.062 19.0327 30.9207 16.3794 30.976 14.6396C31.019 13.4403 30.6565 12.2721 29.9562 11.309L28.6537 9.50703C28.8749 10.9424 28.4264 11.9987 28.4264 11.9987C28.4264 11.9987 25.072 8.6806 21.6377 9.50703C15.7952 10.9673 13.9889 15.1305 13.565 18.6723C13.2456 21.3815 13.9336 24.0907 15.2668 26.4582C17.5813 30.5688 17.8345 34.4064 17.2708 37.5617C12.4506 34.7024 6.8371 29.789 5.89172 22.121C4.95175 14.5029 4.52169 9.8923 4.3251 7.38815C6.23576 7.59942 9.02496 7.83555 11.9862 7.83555C17.4663 7.83555 21.4228 7.05883 23.9908 5.47432C26.5588 7.05883 30.5153 7.83555 35.9954 7.83555C38.9566 7.83555 41.7458 7.59942 43.6565 7.38815C43.4599 9.88608 43.036 14.5029 42.0898 22.121H42.096C41.2789 28.7448 36.9477 33.3182 32.6656 36.2883C32.6617 36.291 32.6577 36.2937 32.6538 36.2964ZM29.5568 15.5468C28.8872 16.9076 29.0346 18.4921 29.0346 18.4921V18.4859L30.3801 18.4176C29.7043 17.6719 29.5568 15.5468 29.5568 15.5468Z" fill="url(#paint0_linear_205_417)"/>
<defs>
<linearGradient id="paint0_linear_205_417" x1="24" y1="0" x2="24" y2="45" gradientUnits="userSpaceOnUse">
<stop stop-color="#D7711B"/>
<stop offset="1" stop-color="#F5B42A"/>
</linearGradient>
</defs>
</svg>
